<?xml version="1.0" encoding="utf-8"?>
<!-- Generator: Adobe Illustrator 27.5.0, SVG Export Plug-In . SVG Version: 6.00 Build 0)  -->
<svg version="1.1" xmlns="http://www.w3.org/2000/svg" xmlns:xlink="http://www.w3.org/1999/xlink" x="0px" y="0px"
	 viewBox="0 0 500 500" style="enable-background:new 0 0 500 500;" xml:space="preserve">
<g id="Floor">
	<path style="fill:#088178;" d="M401.818,265.165c-84.779-48.947-221.784-48.946-306.011,0.001
		c-84.233,48.951-83.786,128.309,0.992,177.256c84.784,48.95,221.789,48.949,306.022-0.002
		C487.048,393.473,486.602,314.115,401.818,265.165z"/>
</g>
<g id="Shadows_1_">
	<path style="fill:#088178;" d="M392.774,374.633c-18.335-10.586-47.964-10.585-66.179,0c-18.216,10.586-18.12,27.749,0.215,38.334
		c18.336,10.586,47.965,10.586,66.181,0C411.206,402.381,411.109,385.219,392.774,374.633z"/>
	<path style="fill:#088178;" d="M296.78,363.173c-18.335-10.585-47.964-10.585-66.179,0c-18.216,10.586-18.12,27.749,0.215,38.334
		c18.336,10.586,47.965,10.586,66.181,0C315.212,390.922,315.116,373.76,296.78,363.173z"/>
</g>
<g id="Clouds">
	<g>
		<g>
			<path style="fill:#088178;" d="M395.29,77.343c-4.051-2.339-7.474-1.193-8.562,2.442c-1.049-2.037-2.618-3.856-4.376-4.871
				c-3.174-1.832-5.757-0.36-5.768,3.287l-0.005,1.674l-4.261-2.46c-2.224-1.284-4.03-0.25-4.038,2.305
				c-0.007,2.556,1.788,5.664,4.012,6.948l36.099,20.842c2.224,1.284,4.034,0.257,4.042-2.299c0.007-2.556-1.791-5.671-4.015-6.955
				l-4.261-2.46l0.009-3.081C404.181,87.064,400.208,80.182,395.29,77.343z"/>
		</g>
		<g>
			<path style="fill:#088178;" d="M359.914,90.997c-2.908-1.679-5.365-0.857-6.146,1.753c-0.753-1.462-1.879-2.768-3.141-3.496
				c-2.278-1.315-4.132-0.259-4.14,2.359l-0.003,1.202l-3.058-1.766c-1.596-0.922-2.893-0.18-2.898,1.655
				c-0.005,1.834,1.283,4.065,2.879,4.987l25.91,14.959c1.596,0.922,2.896,0.184,2.901-1.65c0.005-1.834-1.286-4.07-2.882-4.992
				l-3.058-1.766l0.006-2.212C366.295,97.975,363.443,93.035,359.914,90.997z"/>
		</g>
	</g>
</g>
<g id="Garland">
	<g>
		<g>
			<g>
				<path style="fill:#088178;" d="M447.828,191.775l0.47,1.87c-5.697-1.04-12.073-2.695-19.007-4.914l-0.177-1.714l-0.636-0.272
					C435.549,189.025,442.043,190.72,447.828,191.775z"/>
			</g>
			<g>
				<path style="fill:#088178;" d="M396.287,174.135c0.1,0.045,0.194,0.088,0.294,0.132l0.183,1.774
					c-0.13-0.058-0.259-0.117-0.39-0.175L396.287,174.135z"/>
			</g>
			<g>
				<path style="fill:#088178;" d="M329.872,140.157l0.096-1.624c0.092,0.057,0.19,0.117,0.282,0.174l-0.005,1.68
					C330.122,140.311,329.996,140.233,329.872,140.157z"/>
			</g>
			<g style="enable-background:new    ;">
				<g>
					<path style="fill:#088178;" d="M363.168,157.712c0.093,0.05,0.184,0.099,0.276,0.149l0.087,1.73
						c-0.122-0.065-0.247-0.133-0.368-0.198L363.168,157.712z"/>
				</g>
				<g>
					<path style="fill:#088178;" d="M330.256,136.92l32.918,19.005l-0.005,1.787l-0.005,1.68l-0.068,24.009l-16.489,1.126
						l-16.429-20.131l0.068-24.009l0.005-1.68L330.256,136.92z M358.712,177.916l0.055-19.487l-24.142-13.938l-0.055,19.488
						l12.052,14.763L358.712,177.916"/>
				</g>
			</g>
			<g>
				<path style="fill:#088178;" d="M245.196,76.384l0.479-1.323c5.772,5.617,12.253,11.412,19.313,17.292l-0.633-0.46l-0.186,1.505
					C257.244,87.615,250.88,81.915,245.196,76.384z"/>
			</g>
			<g>
				<path style="fill:#088178;" d="M264.987,92.353l31.994,23.242l-0.134,1.09l-0.192,1.557l-2.818,22.831l-17.535-1.993
					l-15.099-21.712l2.966-23.969l0.186-1.505L264.987,92.353z M289.824,135.18l2.227-18.067L268.124,99.73l-2.234,18.063
					l11.073,15.918L289.824,135.18"/>
			</g>
			<g>
				<path style="fill:#088178;" d="M296.655,118.242l0.192-1.557c0.097,0.069,0.196,0.138,0.294,0.207l-0.097,1.625
					C296.914,118.425,296.785,118.334,296.655,118.242z"/>
			</g>
			<g>
				<polygon style="fill:#FFFFFF;" points="343.099,161.074 344.008,159.204 344.903,162.115 				"/>
			</g>
			<g>
				<path style="fill:#088178;" d="M338.83,154.957c0.645,0.372,1.165,0.87,1.625,1.491c0.105,0.129,0.197,0.326,0.196,0.523
					c-0.001,0.272-0.192,0.374-0.423,0.241c-0.092-0.053-0.165-0.118-0.237-0.212c-0.394-0.523-0.776-0.895-1.177-1.127
					c-0.527-0.304-0.837-0.173-0.838,0.213l0,0.023c-0.001,0.454,0.229,0.784,1.222,1.63c1.085,0.93,1.637,1.696,1.634,2.671
					l0,0.023c-0.003,1.105-0.755,1.322-1.835,0.698c-0.698-0.403-1.356-1.033-1.927-1.855c-0.105-0.144-0.177-0.33-0.177-0.496
					c0.001-0.272,0.192-0.366,0.429-0.23c0.125,0.072,0.204,0.156,0.263,0.243c0.42,0.629,0.88,1.115,1.434,1.434
					c0.56,0.323,0.909,0.222,0.911-0.217c0.001-0.439-0.202-0.784-1.156-1.584c-1.092-0.941-1.703-1.665-1.7-2.747
					C337.077,154.649,337.809,154.367,338.83,154.957z"/>
			</g>
			<g>
				<path style="fill:#088178;" d="M346.478,164.692c0.033,0.095,0.046,0.178,0.046,0.246c-0.001,0.28-0.179,0.397-0.423,0.256
					c-0.211-0.122-0.362-0.353-0.44-0.618l-0.412-1.344l-2.495-1.441l-0.438,0.884c-0.073,0.17-0.225,0.204-0.416,0.093
					c-0.237-0.137-0.421-0.455-0.42-0.727c0-0.076,0.02-0.14,0.06-0.2l1.923-3.785c0.1-0.2,0.284-0.26,0.541-0.112l0.046,0.027
					c0.257,0.148,0.427,0.413,0.532,0.731L346.478,164.692z M343.099,161.074l1.804,1.042l-0.895-2.911L343.099,161.074"/>
			</g>
			<g>
				<path style="fill:#088178;" d="M347.968,160.278c0.25,0.144,0.447,0.485,0.446,0.773l-0.013,4.486l2.324,1.342
					c0.23,0.133,0.414,0.444,0.413,0.708c-0.001,0.257-0.186,0.363-0.416,0.23l-2.772-1.6c-0.257-0.148-0.454-0.489-0.453-0.784
					l0.014-4.902C347.513,160.243,347.711,160.13,347.968,160.278z"/>
			</g>
			<g>
				<path style="fill:#088178;" d="M355.492,164.668c0.217,0.126,0.401,0.436,0.4,0.693c-0.001,0.257-0.186,0.355-0.403,0.23
					l-2.541-1.467l-0.004,1.536l2.212,1.277c0.217,0.125,0.401,0.444,0.4,0.701c-0.001,0.257-0.186,0.348-0.403,0.222l-2.212-1.277
					l-0.004,1.589l2.574,1.486c0.224,0.129,0.408,0.448,0.407,0.697c-0.001,0.265-0.186,0.355-0.41,0.226l-3.022-1.745
					c-0.257-0.148-0.454-0.489-0.453-0.784l0.014-4.849c0.001-0.295,0.199-0.408,0.456-0.26L355.492,164.668z"/>
			</g>
			<g>
				<path style="fill:#FFFFFF;" d="M334.626,144.49l24.142,13.938l-0.055,19.487l-12.09,0.825l-12.052-14.763L334.626,144.49z
					 M346.101,165.194c0.244,0.141,0.422,0.024,0.423-0.256c0-0.068-0.013-0.151-0.046-0.246l-1.895-5.989
					c-0.105-0.318-0.275-0.583-0.532-0.731l-0.046-0.027c-0.257-0.148-0.442-0.088-0.541,0.112l-1.923,3.785
					c-0.04,0.06-0.06,0.125-0.06,0.2c-0.001,0.272,0.183,0.591,0.42,0.727c0.191,0.11,0.343,0.077,0.416-0.093l0.438-0.884
					l2.495,1.441l0.412,1.344C345.739,164.841,345.89,165.072,346.101,165.194 M340.832,160.432l0-0.023
					c0.003-0.976-0.549-1.742-1.634-2.671c-0.993-0.846-1.223-1.176-1.222-1.63l0-0.023c0.001-0.386,0.311-0.517,0.838-0.213
					c0.402,0.232,0.783,0.604,1.177,1.127c0.072,0.095,0.145,0.159,0.237,0.212c0.23,0.133,0.422,0.032,0.423-0.241
					c0.001-0.197-0.091-0.394-0.196-0.523c-0.46-0.622-0.979-1.119-1.625-1.491c-1.021-0.589-1.753-0.308-1.756,0.706
					c-0.003,1.097,0.608,1.821,1.7,2.762c0.954,0.801,1.157,1.146,1.156,1.569c-0.001,0.454-0.351,0.555-0.911,0.232
					c-0.553-0.319-1.013-0.805-1.434-1.434c-0.059-0.087-0.138-0.171-0.263-0.243c-0.237-0.137-0.428-0.043-0.429,0.23
					c-0.001,0.166,0.072,0.352,0.177,0.496c0.571,0.822,1.229,1.452,1.927,1.855C340.077,161.754,340.829,161.536,340.832,160.432
					 M355.509,170.58c0.224,0.129,0.409,0.039,0.409-0.226c0.001-0.25-0.183-0.568-0.407-0.697l-2.574-1.486l0.004-1.589
					l2.212,1.277c0.217,0.126,0.402,0.035,0.403-0.222c0.001-0.257-0.183-0.576-0.4-0.701l-2.212-1.277l0.004-1.536l2.541,1.467
					c0.217,0.125,0.402,0.028,0.403-0.23c0.001-0.257-0.183-0.568-0.4-0.693l-2.989-1.726c-0.257-0.148-0.455-0.035-0.456,0.26
					l-0.014,4.849c-0.001,0.295,0.196,0.636,0.453,0.784L355.509,170.58 M350.723,167.817c0.23,0.133,0.415,0.028,0.416-0.23
					c0.001-0.265-0.183-0.576-0.413-0.708l-2.324-1.342l0.013-4.486c0.001-0.287-0.196-0.628-0.446-0.773
					c-0.257-0.148-0.455-0.035-0.456,0.252l-0.014,4.902c-0.001,0.295,0.196,0.636,0.453,0.784L350.723,167.817"/>
			</g>
			<g>
				<path style="fill:#088178;" d="M318.673,142.841c0.009,0.005,0.017,0.01,0.026,0.016l2.975,1.937
					c0.224,0.144,0.394,0.463,0.38,0.712c-0.02,0.237-0.198,0.319-0.411,0.196c-0.008-0.005-0.017-0.01-0.025-0.015l-2.528-1.641
					l-0.09,1.479l2.205,1.432c0.217,0.141,0.388,0.466,0.374,0.716c-0.013,0.236-0.191,0.316-0.394,0.199
					c-0.012-0.007-0.024-0.014-0.035-0.022l-2.205-1.432l-0.09,1.532l2.567,1.671c0.224,0.145,0.394,0.47,0.38,0.712
					c-0.013,0.24-0.197,0.319-0.405,0.199c-0.008-0.005-0.016-0.01-0.024-0.015l-3.015-1.96c-0.257-0.163-0.44-0.512-0.426-0.799
					l0.284-4.686C318.23,142.793,318.428,142.7,318.673,142.841z"/>
			</g>
			<g>
				<path style="fill:#FFFFFF;" d="M301.305,123.411l24.084,15.655l-1.122,18.826l-12.495-0.296l-11.589-15.359L301.305,123.411z
					 M312.43,144.246c0.007-0.064-0.006-0.147-0.039-0.242l-1.618-5.958c-0.085-0.322-0.255-0.587-0.512-0.758l-0.039-0.023
					c-0.017-0.011-0.034-0.022-0.05-0.031c-0.232-0.134-0.406-0.087-0.517,0.083l-2.186,3.489c-0.04,0.061-0.066,0.113-0.073,0.185
					c-0.014,0.265,0.157,0.59,0.394,0.742c0.011,0.007,0.022,0.014,0.034,0.021c0.176,0.101,0.321,0.073,0.402-0.072l0.497-0.819
					l2.488,1.618l0.352,1.34c0.065,0.265,0.21,0.5,0.42,0.637c0.008,0.005,0.016,0.01,0.025,0.015
					C312.232,144.602,312.417,144.509,312.43,144.246 M322.054,145.506c0.014-0.25-0.157-0.568-0.38-0.712l-2.975-1.938
					c-0.009-0.005-0.017-0.011-0.026-0.016c-0.245-0.141-0.443-0.048-0.456,0.23l-0.284,4.686c-0.014,0.287,0.17,0.636,0.426,0.799
					l3.014,1.96c0.008,0.005,0.016,0.01,0.025,0.015c0.207,0.12,0.391,0.041,0.405-0.199c0.014-0.242-0.157-0.568-0.38-0.712
					l-2.567-1.671l0.09-1.532l2.205,1.432c0.012,0.008,0.024,0.015,0.035,0.022c0.203,0.117,0.381,0.037,0.394-0.199
					c0.014-0.25-0.157-0.575-0.374-0.716l-2.205-1.432l0.09-1.479l2.527,1.641c0.009,0.005,0.017,0.01,0.025,0.015
					C321.857,145.825,322.035,145.743,322.054,145.506 M306.819,139.355c0.055-0.938-0.47-1.734-1.535-2.728
					c-0.973-0.903-1.197-1.252-1.169-1.69c0.02-0.368,0.308-0.485,0.781-0.211c0.029,0.017,0.059,0.035,0.09,0.055
					c0.402,0.262,0.776,0.66,1.157,1.206c0.066,0.091,0.138,0.163,0.224,0.22c0.009,0.006,0.017,0.011,0.026,0.016
					c0.226,0.13,0.417,0.048,0.43-0.207c0.014-0.189-0.078-0.394-0.177-0.526c-0.44-0.64-0.946-1.16-1.591-1.586
					c-0.049-0.032-0.098-0.061-0.146-0.089c-0.941-0.543-1.643-0.319-1.702,0.606l0,0.023c-0.062,1.048,0.529,1.806,1.601,2.804
					c0.941,0.869,1.131,1.221,1.11,1.626c-0.026,0.413-0.354,0.496-0.857,0.206c-0.032-0.019-0.066-0.039-0.099-0.061
					c-0.553-0.365-0.993-0.869-1.394-1.517c-0.059-0.087-0.138-0.186-0.263-0.266c-0.008-0.005-0.017-0.01-0.025-0.015
					c-0.22-0.127-0.411-0.045-0.424,0.203c-0.007,0.17,0.052,0.348,0.15,0.496c0.545,0.845,1.189,1.52,1.887,1.968
					c0.065,0.043,0.13,0.083,0.193,0.119c0.974,0.562,1.675,0.37,1.734-0.628V139.355 M317.031,147.221
					c0.014-0.249-0.157-0.575-0.38-0.72l-2.317-1.504l0.256-4.338c0.014-0.272-0.17-0.621-0.42-0.788
					c-0.009-0.006-0.017-0.011-0.026-0.016c-0.245-0.141-0.442-0.048-0.456,0.222l-0.284,4.739c-0.014,0.288,0.17,0.636,0.426,0.799
					l2.764,1.801c0.008,0.005,0.017,0.01,0.025,0.015C316.839,147.558,317.018,147.469,317.031,147.221"/>
			</g>
			<g>
				<path style="fill:#088178;" d="M312.391,144.004c0.033,0.095,0.046,0.178,0.039,0.242c-0.013,0.263-0.198,0.356-0.424,0.226
					c-0.008-0.005-0.016-0.01-0.025-0.015c-0.211-0.137-0.355-0.372-0.42-0.637l-0.352-1.34l-2.488-1.618l-0.497,0.819
					c-0.081,0.146-0.226,0.174-0.402,0.072c-0.011-0.006-0.022-0.013-0.034-0.021c-0.237-0.152-0.408-0.478-0.394-0.742
					c0.007-0.072,0.033-0.125,0.073-0.185l2.186-3.489c0.111-0.169,0.286-0.216,0.517-0.083c0.016,0.01,0.033,0.02,0.05,0.031
					l0.039,0.023c0.257,0.171,0.427,0.436,0.512,0.758L312.391,144.004z M309.118,140.205l1.797,1.166l-0.763-2.888L309.118,140.205
					"/>
			</g>
			<g>
				<polygon style="fill:#FFFFFF;" points="309.118,140.205 310.152,138.483 310.915,141.371 				"/>
			</g>
			<g>
				<path style="fill:#088178;" d="M304.908,133.814c0.048,0.028,0.096,0.057,0.146,0.089c0.645,0.426,1.151,0.945,1.591,1.586
					c0.099,0.133,0.19,0.337,0.177,0.526c-0.013,0.255-0.204,0.338-0.43,0.207c-0.008-0.005-0.017-0.01-0.025-0.015
					c-0.086-0.057-0.158-0.129-0.224-0.22c-0.381-0.546-0.756-0.944-1.157-1.206c-0.031-0.02-0.06-0.038-0.09-0.055
					c-0.474-0.273-0.762-0.156-0.781,0.196c-0.028,0.454,0.196,0.802,1.169,1.705c1.065,0.994,1.591,1.79,1.535,2.728l0,0.023
					c-0.059,0.998-0.76,1.19-1.734,0.628c-0.063-0.036-0.128-0.076-0.193-0.119c-0.698-0.448-1.342-1.123-1.887-1.968
					c-0.099-0.148-0.157-0.326-0.15-0.496c0.013-0.248,0.204-0.33,0.424-0.203c0.008,0.005,0.016,0.01,0.025,0.015
					c0.125,0.08,0.204,0.178,0.263,0.266c0.4,0.648,0.841,1.152,1.394,1.517c0.034,0.022,0.067,0.042,0.099,0.061
					c0.504,0.291,0.831,0.208,0.857-0.19c0.021-0.42-0.169-0.772-1.11-1.641c-1.072-0.998-1.663-1.756-1.601-2.804v-0.023
					C303.265,133.495,303.967,133.27,304.908,133.814z"/>
			</g>
			<g>
				<path style="fill:#088178;" d="M314.144,139.855c0.009,0.005,0.017,0.01,0.026,0.016c0.25,0.167,0.434,0.516,0.42,0.788
					l-0.256,4.338l2.317,1.504c0.224,0.144,0.394,0.47,0.38,0.72c-0.013,0.248-0.192,0.337-0.411,0.211
					c-0.008-0.005-0.016-0.01-0.025-0.015l-2.764-1.801c-0.257-0.163-0.44-0.512-0.426-0.799l0.284-4.739
					C313.702,139.807,313.9,139.714,314.144,139.855z"/>
			</g>
			<g>
				<path style="fill:#088178;" d="M297.212,115.691l32.845,21.342l-0.089,1.5l-0.096,1.624l-1.393,23.433l-17.039-0.403
					l-15.807-20.939l1.411-23.73l0.097-1.625L297.212,115.691z M324.268,157.893l1.122-18.826l-24.084-15.655l-1.122,18.826
					l11.589,15.359L324.268,157.893"/>
			</g>
			<g>
				<polygon style="fill:#FFFFFF;" points="275.217,116.669 276.389,115.11 277.008,117.975 				"/>
			</g>
			<g>
				<path style="fill:#088178;" d="M271.08,110.013c0.101,0.059,0.205,0.126,0.311,0.204c0.638,0.46,1.138,1.021,1.551,1.676
					c0.092,0.136,0.171,0.341,0.15,0.526c-0.031,0.234-0.214,0.297-0.423,0.176c-0.017-0.01-0.034-0.021-0.052-0.033
					c-0.092-0.068-0.158-0.144-0.224-0.243c-0.361-0.557-0.723-0.97-1.124-1.263c-0.061-0.044-0.12-0.082-0.176-0.115
					c-0.42-0.243-0.691-0.159-0.727,0.162c-0.054,0.439,0.149,0.791,1.103,1.758c1.039,1.062,1.544,1.877,1.43,2.78l0,0.023
					c-0.114,0.901-0.773,1.058-1.663,0.545c-0.115-0.066-0.234-0.144-0.356-0.233c-0.691-0.505-1.315-1.214-1.827-2.078
					c-0.092-0.152-0.151-0.337-0.13-0.5c0.031-0.224,0.209-0.294,0.414-0.175c0.02,0.012,0.04,0.025,0.061,0.04
					c0.125,0.087,0.204,0.186,0.25,0.273c0.381,0.667,0.808,1.201,1.36,1.604c0.068,0.048,0.132,0.09,0.194,0.126
					c0.447,0.258,0.747,0.197,0.788-0.165c0.054-0.401-0.123-0.761-1.044-1.686c-1.046-1.066-1.617-1.858-1.489-2.86
					C269.561,109.698,270.221,109.517,271.08,110.013z"/>
			</g>
			<g>
				<path style="fill:#088178;" d="M278.378,120.654c0.026,0.098,0.033,0.178,0.026,0.242c-0.031,0.236-0.21,0.314-0.426,0.189
					c-0.016-0.009-0.033-0.02-0.05-0.032c-0.211-0.152-0.342-0.394-0.394-0.652l-0.293-1.329l-2.468-1.796l-0.563,0.744
					c-0.083,0.129-0.23,0.135-0.393,0.041c-0.018-0.01-0.036-0.022-0.055-0.035c-0.237-0.175-0.394-0.5-0.36-0.746
					c0.007-0.072,0.04-0.129,0.086-0.178l2.449-3.163c0.117-0.147,0.285-0.175,0.5-0.051c0.028,0.016,0.057,0.035,0.087,0.057
					l0.039,0.023c0.257,0.186,0.414,0.466,0.486,0.781L278.378,120.654z M275.217,116.669l1.79,1.306l-0.618-2.865L275.217,116.669"
					/>
			</g>
			<g>
				<path style="fill:#088178;" d="M280.385,116.791c0.02,0.012,0.041,0.025,0.061,0.04c0.25,0.182,0.421,0.538,0.387,0.807
					l-0.513,4.152l2.303,1.678c0.224,0.16,0.381,0.485,0.354,0.727c-0.031,0.224-0.203,0.297-0.403,0.181
					c-0.019-0.011-0.039-0.024-0.059-0.039l-2.751-1.997c-0.25-0.182-0.42-0.531-0.387-0.807l0.56-4.549
					C279.969,116.739,280.16,116.662,280.385,116.791z"/>
			</g>
			<g>
				<path style="fill:#088178;" d="M284.878,120.098c0.021,0.012,0.042,0.025,0.063,0.041l2.961,2.157
					c0.217,0.156,0.375,0.481,0.341,0.712c-0.025,0.227-0.196,0.294-0.389,0.182c-0.02-0.011-0.039-0.024-0.059-0.039l-2.514-1.823
					l-0.175,1.422l2.185,1.587c0.217,0.156,0.375,0.482,0.347,0.731c-0.025,0.213-0.201,0.276-0.396,0.163
					c-0.02-0.011-0.04-0.024-0.06-0.04l-2.185-1.587l-0.182,1.471l2.553,1.853c0.217,0.156,0.375,0.489,0.347,0.723
					c-0.031,0.22-0.208,0.285-0.406,0.17c-0.016-0.009-0.033-0.02-0.049-0.032l-2.994-2.176c-0.257-0.186-0.427-0.542-0.393-0.818
					l0.56-4.496C284.464,120.047,284.65,119.966,284.878,120.098z"/>
			</g>
			<g>
				<path style="fill:#FFFFFF;" d="M268.124,99.73l23.928,17.384l-2.227,18.067l-12.861-1.47l-11.073-15.918L268.124,99.73z
					 M278.404,120.896c0.007-0.064,0-0.144-0.026-0.242l-1.329-5.905c-0.072-0.314-0.229-0.594-0.486-0.781l-0.039-0.023
					c-0.03-0.021-0.059-0.04-0.087-0.057c-0.215-0.124-0.383-0.096-0.5,0.051l-2.449,3.163c-0.046,0.049-0.079,0.106-0.086,0.178
					c-0.034,0.246,0.124,0.571,0.36,0.746c0.019,0.013,0.037,0.025,0.055,0.035c0.163,0.094,0.31,0.088,0.393-0.041l0.563-0.744
					l2.468,1.796l0.293,1.329c0.052,0.257,0.183,0.5,0.394,0.652c0.017,0.012,0.033,0.022,0.05,0.032
					C278.193,121.209,278.372,121.131,278.404,120.896 M288.243,123.007c0.034-0.231-0.124-0.556-0.341-0.712l-2.961-2.157
					c-0.021-0.016-0.042-0.029-0.063-0.041c-0.229-0.132-0.414-0.051-0.445,0.202l-0.56,4.496c-0.034,0.276,0.137,0.632,0.393,0.818
					l2.994,2.176c0.016,0.012,0.033,0.022,0.049,0.032c0.198,0.114,0.375,0.05,0.406-0.17c0.027-0.234-0.13-0.568-0.347-0.723
					l-2.553-1.853l0.182-1.471l2.185,1.587c0.02,0.015,0.04,0.028,0.06,0.04c0.195,0.112,0.371,0.05,0.396-0.163
					c0.027-0.249-0.13-0.575-0.348-0.731l-2.185-1.587l0.176-1.422l2.514,1.823c0.02,0.015,0.04,0.028,0.059,0.039
					C288.047,123.301,288.218,123.234,288.243,123.007 M273.093,112.419c0.02-0.185-0.058-0.39-0.15-0.526
					c-0.414-0.655-0.913-1.217-1.551-1.676c-0.106-0.077-0.21-0.145-0.311-0.204c-0.859-0.496-1.519-0.315-1.622,0.527
					c-0.128,1.017,0.443,1.809,1.489,2.875c0.921,0.926,1.098,1.285,1.05,1.675c-0.048,0.373-0.348,0.434-0.795,0.176
					c-0.062-0.036-0.127-0.078-0.194-0.126c-0.553-0.402-0.98-0.937-1.361-1.604c-0.046-0.087-0.125-0.186-0.25-0.273
					c-0.02-0.015-0.041-0.028-0.061-0.04c-0.206-0.119-0.384-0.049-0.414,0.175c-0.02,0.163,0.039,0.348,0.13,0.5
					c0.512,0.864,1.136,1.573,1.827,2.078c0.122,0.089,0.241,0.166,0.356,0.233c0.89,0.514,1.55,0.356,1.663-0.545l0-0.023
					c0.115-0.904-0.391-1.718-1.43-2.78c-0.954-0.967-1.157-1.32-1.109-1.747c0.042-0.331,0.313-0.416,0.734-0.173
					c0.056,0.032,0.115,0.071,0.176,0.115c0.401,0.293,0.763,0.706,1.124,1.263c0.066,0.099,0.131,0.174,0.224,0.243
					c0.017,0.012,0.035,0.023,0.052,0.033C272.879,112.716,273.062,112.653,273.093,112.419 M282.977,124.196
					c0.027-0.242-0.13-0.568-0.354-0.727l-2.303-1.678l0.513-4.152c0.034-0.269-0.137-0.625-0.387-0.807
					c-0.021-0.015-0.041-0.028-0.061-0.04c-0.224-0.13-0.416-0.052-0.447,0.194l-0.56,4.549c-0.034,0.276,0.137,0.624,0.387,0.807
					l2.751,1.997c0.02,0.015,0.039,0.028,0.059,0.039C282.774,124.492,282.947,124.419,282.977,124.196"/>
			</g>
			<g style="enable-background:new    ;">
				<g>
					<path style="fill:#FFFFFF;" d="M392.105,175.835l1.012,20.058l-11.645,1.946l-12.45-14.106l-1.018-20.062L392.105,175.835z
						 M380.772,184.219c0.244,0.118,0.409-0.022,0.396-0.301l-0.065-0.257l-2.205-5.994c-0.11-0.296-0.277-0.533-0.507-0.666
						c-0.017-0.01-0.034-0.019-0.052-0.028l-0.046-0.027c-0.257-0.126-0.429-0.05-0.515,0.173l-1.601,4.122
						c-0.033,0.064-0.047,0.132-0.047,0.208c0.018,0.269,0.196,0.562,0.41,0.686c0.012,0.007,0.024,0.013,0.036,0.019
						c0.191,0.095,0.336,0.05,0.396-0.135l0.366-0.964l2.489,1.225l0.484,1.348c0.087,0.251,0.233,0.461,0.427,0.573
						C380.75,184.207,380.761,184.213,380.772,184.219 M390.156,188.796c0.224,0.107,0.389-0.01,0.377-0.283
						c-0.018-0.247-0.196-0.539-0.399-0.656c-0.011-0.007-0.023-0.013-0.034-0.018l-2.568-1.271l-0.094-1.63l2.199,1.08
						c0.217,0.103,0.389-0.01,0.377-0.275c-0.018-0.255-0.196-0.547-0.399-0.664c-0.011-0.007-0.023-0.013-0.034-0.018l-2.199-1.088
						l-0.094-1.585l2.529,1.248c0.217,0.103,0.389-0.01,0.377-0.283c-0.018-0.247-0.196-0.539-0.399-0.656
						c-0.011-0.007-0.023-0.013-0.034-0.018l-2.976-1.468c-0.257-0.126-0.442,0.01-0.423,0.317l0.302,5.024
						c0.012,0.288,0.208,0.607,0.443,0.742c0.012,0.007,0.024,0.014,0.037,0.02L390.156,188.796 M373.687,180.772
						c1.08,0.533,1.793,0.224,1.724-0.922c-0.063-1.029-0.648-1.761-1.747-2.607c-1.007-0.771-1.25-1.093-1.281-1.566
						c-0.025-0.416,0.265-0.582,0.792-0.323c0.048,0.023,0.096,0.049,0.144,0.077c0.351,0.203,0.695,0.522,1.06,0.959
						c0.069,0.08,0.133,0.139,0.205,0.18c0.01,0.006,0.021,0.012,0.032,0.017c0.237,0.114,0.415-0.01,0.396-0.294
						c-0.013-0.204-0.117-0.401-0.223-0.523c-0.417-0.51-0.873-0.924-1.409-1.233c-0.081-0.047-0.164-0.091-0.249-0.133
						c-1.014-0.495-1.701-0.133-1.638,0.918c0.063,1.135,0.7,1.821,1.812,2.676c0.961,0.721,1.184,1.062,1.209,1.501
						c0.025,0.469-0.305,0.604-0.858,0.338c-0.057-0.028-0.113-0.058-0.168-0.09c-0.487-0.281-0.905-0.701-1.306-1.246
						c-0.05-0.067-0.119-0.14-0.215-0.196c-0.017-0.01-0.036-0.02-0.055-0.028c-0.23-0.118-0.409,0.006-0.397,0.286
						c0.013,0.174,0.091,0.356,0.203,0.496c0.527,0.692,1.117,1.231,1.723,1.581C373.524,180.689,373.605,180.732,373.687,180.772
						 M385.382,186.441c0.224,0.114,0.396-0.014,0.383-0.279c-0.018-0.266-0.201-0.557-0.415-0.68
						c-0.008-0.005-0.017-0.009-0.025-0.014l-2.318-1.141l-0.277-4.638c-0.018-0.288-0.215-0.602-0.453-0.74
						c-0.009-0.005-0.017-0.01-0.026-0.014c-0.257-0.126-0.442,0.01-0.423,0.309l0.302,5.077c0.018,0.296,0.215,0.61,0.459,0.751
						c0.009,0.005,0.018,0.01,0.027,0.015L385.382,186.441"/>
				</g>
				<g>
					<polygon style="fill:#FFFFFF;" points="377.625,180.272 378.382,178.255 379.423,181.159 					"/>
				</g>
				<g>
					<path style="fill:#088178;" d="M381.169,183.917c0.012,0.28-0.153,0.42-0.396,0.301c-0.011-0.006-0.022-0.012-0.033-0.018
						c-0.194-0.112-0.34-0.323-0.427-0.573l-0.484-1.348l-2.489-1.225l-0.366,0.964c-0.06,0.185-0.205,0.23-0.396,0.135
						c-0.012-0.006-0.024-0.012-0.036-0.019c-0.215-0.124-0.392-0.417-0.41-0.686c0-0.076,0.014-0.144,0.047-0.208l1.601-4.122
						c0.086-0.223,0.258-0.298,0.515-0.173l0.046,0.027c0.018,0.009,0.035,0.018,0.052,0.028c0.23,0.133,0.397,0.37,0.507,0.666
						l2.205,5.994L381.169,183.917z M377.625,180.272l1.798,0.886l-1.04-2.904L377.625,180.272"/>
				</g>
			</g>
			<g>
				<path style="fill:#088178;" d="M373.38,174.538c0.535,0.309,0.992,0.723,1.409,1.233c0.105,0.121,0.21,0.318,0.223,0.523
					c0.019,0.284-0.159,0.408-0.396,0.294c-0.011-0.005-0.022-0.011-0.032-0.017c-0.072-0.042-0.136-0.101-0.205-0.18
					c-0.364-0.437-0.708-0.757-1.06-0.959c-0.048-0.028-0.096-0.053-0.144-0.077c-0.527-0.259-0.817-0.093-0.792,0.308
					c0.032,0.488,0.275,0.81,1.281,1.581c1.099,0.846,1.684,1.578,1.747,2.592c0.069,1.161-0.644,1.47-1.724,0.937
					c-0.082-0.04-0.163-0.083-0.244-0.13c-0.606-0.35-1.195-0.889-1.723-1.581c-0.112-0.14-0.19-0.322-0.203-0.496
					c-0.012-0.28,0.166-0.404,0.397-0.286c0.019,0.009,0.037,0.018,0.055,0.028c0.096,0.055,0.165,0.128,0.215,0.196
					c0.401,0.545,0.819,0.965,1.306,1.246c0.055,0.032,0.111,0.062,0.168,0.09c0.553,0.266,0.883,0.131,0.858-0.323
					c-0.025-0.454-0.248-0.795-1.209-1.516c-1.112-0.854-1.75-1.541-1.812-2.661c-0.063-1.067,0.624-1.428,1.638-0.933
					C373.216,174.446,373.299,174.491,373.38,174.538z"/>
			</g>
			<g>
				<path style="fill:#088178;" d="M382.277,178.949c0.239,0.138,0.435,0.451,0.453,0.74l0.277,4.638l2.318,1.141
					c0.009,0.004,0.017,0.009,0.025,0.014c0.213,0.123,0.397,0.414,0.415,0.68c0.013,0.265-0.159,0.393-0.383,0.279l-2.766-1.354
					c-0.009-0.005-0.018-0.009-0.027-0.015c-0.245-0.141-0.441-0.455-0.459-0.751l-0.302-5.077
					c-0.019-0.299,0.166-0.434,0.423-0.309C382.26,178.939,382.269,178.944,382.277,178.949z"/>
			</g>
			<g>
				<path style="fill:#088178;" d="M389.792,182.696c0.203,0.117,0.381,0.409,0.399,0.656c0.012,0.273-0.159,0.386-0.377,0.283
					l-2.529-1.248l0.094,1.585l2.199,1.088c0.012,0.005,0.023,0.012,0.034,0.018c0.203,0.117,0.381,0.41,0.399,0.664
					c0.013,0.265-0.159,0.378-0.377,0.275l-2.199-1.08l0.094,1.63l2.568,1.271c0.011,0.005,0.023,0.011,0.034,0.018
					c0.203,0.117,0.381,0.409,0.399,0.656c0.012,0.272-0.153,0.389-0.377,0.283l-3.016-1.484c-0.012-0.006-0.025-0.012-0.037-0.02
					c-0.234-0.135-0.431-0.454-0.443-0.742l-0.302-5.024c-0.019-0.306,0.166-0.442,0.423-0.316l2.976,1.468
					C389.77,182.684,389.781,182.689,389.792,182.696z"/>
			</g>
			<g>
				<path style="fill:#088178;" d="M416.066,194.697c0.228,0.132,0.418,0.431,0.442,0.713l0.435,4.707l2.305,1.028
					c0.016,0.007,0.033,0.015,0.048,0.025c0.209,0.121,0.381,0.401,0.405,0.654c0.026,0.272-0.133,0.416-0.357,0.317l-2.759-1.23
					c-0.018-0.008-0.035-0.017-0.052-0.027c-0.234-0.135-0.423-0.434-0.447-0.724l-0.473-5.153
					c-0.025-0.295,0.147-0.454,0.403-0.336C416.033,194.678,416.05,194.687,416.066,194.697z"/>
			</g>
			<g>
				<path style="fill:#088178;" d="M423.545,198.074c0.199,0.115,0.375,0.39,0.399,0.643c0.026,0.272-0.14,0.404-0.357,0.302
					l-2.522-1.123l0.147,1.615l2.193,0.971c0.012,0.006,0.025,0.012,0.037,0.019c0.203,0.117,0.386,0.399,0.41,0.663
					c0.026,0.265-0.14,0.389-0.357,0.294l-2.193-0.978l0.154,1.665l2.555,1.142c0.015,0.007,0.031,0.015,0.046,0.023
					c0.199,0.115,0.377,0.398,0.401,0.644c0.026,0.272-0.14,0.404-0.357,0.309l-3.003-1.34c-0.017-0.008-0.035-0.017-0.052-0.027
					c-0.234-0.135-0.424-0.435-0.454-0.727l-0.46-5.092c-0.032-0.314,0.146-0.461,0.397-0.354l2.97,1.328
					C423.513,198.057,423.529,198.065,423.545,198.074z"/>
			</g>
			<g style="enable-background:new    ;">
				<g>
					<path style="fill:#088178;" d="M407.314,190.773c0.478,0.276,0.893,0.641,1.285,1.101c0.105,0.114,0.217,0.307,0.236,0.515
						c0.025,0.288-0.14,0.427-0.377,0.32c-0.014-0.007-0.028-0.014-0.042-0.022c-0.069-0.04-0.134-0.093-0.195-0.16
						c-0.352-0.403-0.678-0.693-1.006-0.883c-0.07-0.04-0.14-0.076-0.211-0.108c-0.527-0.236-0.804-0.048-0.766,0.361
						c0.045,0.496,0.301,0.81,1.308,1.536c1.105,0.798,1.703,1.514,1.799,2.539v0.023c0.109,1.161-0.578,1.515-1.651,1.032
						c-0.125-0.056-0.251-0.12-0.375-0.192c-0.562-0.325-1.112-0.81-1.612-1.44c-0.112-0.133-0.197-0.311-0.216-0.496
						c-0.026-0.28,0.146-0.416,0.377-0.313c0.022,0.01,0.043,0.021,0.063,0.032c0.092,0.053,0.158,0.118,0.207,0.184
						c0.384,0.494,0.777,0.877,1.219,1.131c0.087,0.05,0.177,0.096,0.268,0.136c0.553,0.251,0.877,0.09,0.832-0.376
						c-0.038-0.454-0.268-0.784-1.236-1.471c-1.119-0.805-1.763-1.465-1.865-2.608c-0.103-1.082,0.558-1.496,1.572-1.04
						C407.061,190.635,407.189,190.701,407.314,190.773z"/>
				</g>
				<g>
					<polygon style="fill:#FFFFFF;" points="411.534,196.296 412.199,194.187 413.325,197.095 					"/>
				</g>
				<g>
					<path style="fill:#FFFFFF;" d="M425.306,190.479l2.124,20.579l-11.127,3.101l-12.821-13.358l-2.124-20.579L425.306,190.479z
						 M414.747,200.136c0.244,0.103,0.402-0.048,0.377-0.335l-0.072-0.254l-2.363-5.979c-0.116-0.289-0.275-0.513-0.489-0.637
						c-0.027-0.015-0.054-0.029-0.083-0.042l-0.046-0.019c-0.257-0.118-0.422-0.031-0.502,0.195l-1.423,4.293
						c-0.027,0.076-0.04,0.144-0.034,0.223c0.024,0.26,0.201,0.544,0.411,0.665c0.016,0.009,0.032,0.018,0.048,0.025
						c0.191,0.087,0.33,0.031,0.383-0.158l0.32-1.005l2.483,1.108l0.517,1.344c0.096,0.244,0.237,0.443,0.423,0.55
						C414.714,200.12,414.73,200.129,414.747,200.136 M424.1,204.263c0.217,0.095,0.383-0.037,0.357-0.309
						c-0.024-0.246-0.201-0.529-0.401-0.644c-0.015-0.009-0.03-0.017-0.046-0.023l-2.555-1.142l-0.154-1.665l2.193,0.978
						c0.217,0.095,0.383-0.029,0.357-0.294c-0.024-0.264-0.207-0.546-0.41-0.663c-0.012-0.007-0.024-0.014-0.037-0.019l-2.193-0.971
						l-0.147-1.615l2.522,1.123c0.217,0.103,0.383-0.029,0.357-0.302c-0.024-0.253-0.2-0.528-0.399-0.643
						c-0.016-0.009-0.032-0.017-0.048-0.024l-2.97-1.329c-0.25-0.106-0.429,0.04-0.397,0.355l0.46,5.092
						c0.03,0.293,0.22,0.592,0.454,0.727c0.017,0.01,0.034,0.019,0.052,0.027L424.1,204.263 M407.694,197.026
						c1.073,0.483,1.76,0.13,1.651-1.032v-0.023c-0.096-1.025-0.694-1.742-1.8-2.539c-1.007-0.725-1.263-1.04-1.308-1.52
						c-0.038-0.424,0.239-0.612,0.766-0.376c0.071,0.031,0.141,0.067,0.211,0.108c0.328,0.19,0.654,0.48,1.006,0.883
						c0.06,0.066,0.125,0.12,0.195,0.16c0.014,0.008,0.028,0.016,0.042,0.022c0.237,0.107,0.402-0.033,0.377-0.32
						c-0.019-0.208-0.131-0.401-0.236-0.515c-0.391-0.46-0.807-0.825-1.284-1.101c-0.125-0.072-0.253-0.138-0.387-0.198
						c-1.014-0.457-1.675-0.043-1.579,1.021c0.109,1.162,0.753,1.822,1.872,2.627c0.967,0.687,1.197,1.017,1.236,1.456
						c0.045,0.48-0.279,0.642-0.832,0.391c-0.091-0.04-0.181-0.086-0.268-0.136c-0.441-0.255-0.835-0.638-1.219-1.131
						c-0.049-0.065-0.115-0.131-0.207-0.184c-0.02-0.011-0.041-0.022-0.063-0.032c-0.23-0.103-0.402,0.033-0.377,0.313
						c0.019,0.185,0.104,0.363,0.216,0.496c0.5,0.63,1.05,1.116,1.612,1.44C407.443,196.906,407.568,196.971,407.694,197.026
						 M419.344,202.139c0.224,0.099,0.383-0.044,0.357-0.317c-0.024-0.253-0.195-0.533-0.405-0.654
						c-0.016-0.009-0.032-0.017-0.048-0.025l-2.305-1.028l-0.435-4.707c-0.024-0.282-0.214-0.581-0.442-0.713
						c-0.017-0.01-0.034-0.018-0.051-0.026c-0.257-0.118-0.429,0.04-0.403,0.336l0.473,5.153c0.024,0.289,0.214,0.589,0.447,0.724
						c0.017,0.01,0.034,0.019,0.052,0.027L419.344,202.139"/>
				</g>
				<g>
					<path style="fill:#088178;" d="M415.124,199.801c0.026,0.288-0.133,0.438-0.377,0.335c-0.017-0.008-0.033-0.017-0.05-0.026
						c-0.186-0.107-0.327-0.307-0.423-0.55l-0.517-1.344l-2.483-1.108l-0.32,1.005c-0.053,0.189-0.192,0.245-0.383,0.158
						c-0.016-0.007-0.033-0.016-0.048-0.025c-0.21-0.121-0.388-0.405-0.411-0.665c-0.006-0.079,0.007-0.148,0.034-0.223l1.423-4.293
						c0.08-0.227,0.245-0.313,0.502-0.195l0.046,0.019c0.029,0.012,0.056,0.026,0.083,0.042c0.214,0.124,0.373,0.348,0.489,0.637
						l2.363,5.979L415.124,199.801z M411.534,196.296l1.791,0.799l-1.126-2.908L411.534,196.296"/>
				</g>
			</g>
			<g>
				<path style="fill:#088178;" d="M429.291,188.732l2.814,27.306l-15.172,4.235l-17.483-18.224l-2.686-26.008l-0.183-1.774
					l-0.128-1.242l32.026,13.72l0.636,0.272L429.291,188.732z M416.303,214.159l11.127-3.101l-2.124-20.579l-23.948-10.257
					l2.124,20.579L416.303,214.159"/>
			</g>
			<g>
				<path style="fill:#088178;" d="M396.374,175.866l1.278,25.282l-15.88,2.645l-16.979-19.236l-1.262-24.965l-0.087-1.73
					l-0.081-1.598l32.859,16.592l0.065,1.281L396.374,175.866z M381.472,197.838l11.645-1.946l-1.012-20.058l-24.101-12.164
					l1.018,20.062L381.472,197.838"/>
			</g>
		</g>
		<path style="opacity:0.5;fill:#FFFFFF;" d="M448.298,193.647l-0.47-1.87c-5.785-1.055-12.279-2.751-19.35-5.03l-32.026-13.72
			l0.128,1.242c-0.099-0.045-0.194-0.087-0.294-0.132l-0.065-1.28l-32.859-16.592l0.081,1.598c-0.093-0.05-0.184-0.099-0.276-0.149
			l0.005-1.787l-32.918-19.005l-0.005,1.787c-0.092-0.057-0.19-0.117-0.282-0.174l0.089-1.5l-32.845-21.342l-0.071,1.201
			c-0.097-0.069-0.197-0.138-0.294-0.207l0.134-1.09l-31.994-23.242c-7.06-5.879-13.541-11.674-19.313-17.292l-0.479,1.323
			c5.684,5.531,12.049,11.231,18.972,17.014l-2.966,23.969l15.099,21.713l17.535,1.993l2.818-22.831
			c0.13,0.092,0.259,0.183,0.389,0.274l-1.411,23.73l15.807,20.939l17.038,0.404l1.393-23.433c0.124,0.076,0.25,0.154,0.374,0.231
			l-0.068,24.009l16.429,20.131l16.489-1.126l0.068-24.009c0.122,0.065,0.247,0.133,0.368,0.198l1.262,24.965l16.979,19.236
			l15.88-2.645l-1.278-25.282c0.131,0.059,0.259,0.117,0.39,0.175l2.686,26.008l17.483,18.224l15.172-4.235l-2.814-27.306
			C436.225,190.952,442.601,192.607,448.298,193.647z"/>
	</g>
</g>
<g id="Window_shopping">
	<g>
		<g>
			<polygon style="fill:#455A64;" points="61.278,136.164 61.278,369.5 244.108,263.943 244.108,30.607 			"/>
			<g>
				<polygon style="fill:#088178;" points="183.958,77.681 71.97,142.337 71.97,293.904 183.958,229.212 				"/>
				<polygon style="fill:#088178;" points="183.958,229.212 71.97,293.904 71.97,350.982 183.958,286.325 233.416,257.669 				"/>
				<polygon style="fill:#088178;" points="233.416,257.669 233.416,257.669 233.416,49.126 183.958,77.681 183.958,229.212 				"/>
			</g>
			<polygon style="opacity:0.3;fill:#FFFFFF;" points="183.958,77.681 71.97,142.337 71.97,293.904 183.958,229.212 			"/>
			<polygon style="opacity:0.2;fill:#FFFFFF;" points="183.958,229.212 71.97,293.904 71.97,350.982 183.958,286.325 
				233.416,257.669 			"/>
			<polygon style="opacity:0.4;fill:#FFFFFF;" points="233.416,257.669 233.416,257.669 233.416,49.126 183.958,77.681 
				183.958,229.212 			"/>
			<g>
				<g>
					<g>
						<polygon style="fill:#FFFFFF;" points="146.628,86.874 169.061,110.649 181.252,103.61 158.82,79.835 						"/>
					</g>
					<g>
						<polygon style="fill:#FFFFFF;" points="171.012,72.796 193.444,96.571 205.636,89.532 183.203,65.757 						"/>
					</g>
					<g>
						<polygon style="fill:#088178;" points="158.82,79.835 181.252,103.61 193.444,96.571 171.012,72.796 						"/>
					</g>
					<g>
						<polygon style="fill:#088178;" points="183.203,65.757 205.636,89.532 217.827,82.493 195.395,58.718 						"/>
					</g>
					<g>
						<polygon style="fill:#FFFFFF;" points="195.395,58.718 217.827,82.493 230.019,75.454 207.587,51.68 						"/>
					</g>
					<g style="enable-background:new    ;">
						<g>
							<polygon style="fill:#088178;" points="231.97,37.602 254.402,61.377 266.594,54.338 244.162,30.563 							"/>
						</g>
						<g>
							<polygon style="fill:#FFFFFF;" points="219.779,44.641 242.211,68.416 254.402,61.377 231.97,37.602 							"/>
						</g>
						<g>
							<polygon style="fill:#088178;" points="207.587,51.68 230.019,75.454 242.211,68.416 219.779,44.641 							"/>
						</g>
					</g>
					<g>
						<polygon style="fill:#FFFFFF;" points="122.245,100.952 144.677,124.727 156.869,117.688 134.437,93.913 						"/>
					</g>
					<g style="enable-background:new    ;">
						<g>
							<polygon style="fill:#088178;" points="110.053,107.991 132.486,131.766 144.677,124.727 122.245,100.952 							"/>
						</g>
						<g>
							<polygon style="fill:#FFFFFF;" points="97.862,115.029 120.294,138.804 132.486,131.766 110.053,107.991 							"/>
						</g>
						<g>
							<polygon style="fill:#088178;" points="85.67,122.068 108.102,145.843 120.294,138.804 97.862,115.029 							"/>
						</g>
						<g>
							<polygon style="fill:#FFFFFF;" points="73.478,129.107 95.91,152.882 108.102,145.843 85.67,122.068 							"/>
						</g>
						<g>
							<polygon style="fill:#088178;" points="61.286,136.146 83.719,159.921 95.91,152.882 73.478,129.107 							"/>
						</g>
					</g>
					<g>
						<polygon style="fill:#088178;" points="134.437,93.913 156.869,117.688 169.061,110.649 146.628,86.874 						"/>
					</g>
				</g>
				<g style="opacity:0.3;">
					<g>
						<polygon style="fill:#FFFFFF;" points="146.628,86.874 169.061,110.649 181.252,103.61 158.82,79.835 						"/>
					</g>
					<g>
						<polygon style="fill:#FFFFFF;" points="171.012,72.796 193.444,96.571 205.636,89.532 183.203,65.757 						"/>
					</g>
					<g>
						<polygon style="fill:#FFFFFF;" points="158.82,79.835 181.252,103.61 193.444,96.571 171.012,72.796 						"/>
					</g>
					<g>
						<polygon style="fill:#FFFFFF;" points="183.203,65.757 205.636,89.532 217.827,82.493 195.395,58.718 						"/>
					</g>
					<g>
						<polygon style="fill:#FFFFFF;" points="195.395,58.718 217.827,82.493 230.019,75.454 207.587,51.68 						"/>
					</g>
					<g style="enable-background:new    ;">
						<g>
							<polygon style="fill:#FFFFFF;" points="231.97,37.602 254.402,61.377 266.594,54.338 244.162,30.563 							"/>
						</g>
						<g>
							<polygon style="fill:#FFFFFF;" points="219.779,44.641 242.211,68.416 254.402,61.377 231.97,37.602 							"/>
						</g>
						<g>
							<polygon style="fill:#FFFFFF;" points="207.587,51.68 230.019,75.454 242.211,68.416 219.779,44.641 							"/>
						</g>
					</g>
					<g>
						<polygon style="fill:#FFFFFF;" points="122.245,100.952 144.677,124.727 156.869,117.688 134.437,93.913 						"/>
					</g>
					<g style="enable-background:new    ;">
						<g>
							<polygon style="fill:#FFFFFF;" points="110.053,107.991 132.486,131.766 144.677,124.727 122.245,100.952 							"/>
						</g>
						<g>
							<polygon style="fill:#FFFFFF;" points="97.862,115.029 120.294,138.804 132.486,131.766 110.053,107.991 							"/>
						</g>
						<g>
							<polygon style="fill:#FFFFFF;" points="85.67,122.068 108.102,145.843 120.294,138.804 97.862,115.029 							"/>
						</g>
						<g>
							<polygon style="fill:#FFFFFF;" points="73.478,129.107 95.91,152.882 108.102,145.843 85.67,122.068 							"/>
						</g>
						<g>
							<polygon style="fill:#FFFFFF;" points="61.286,136.146 83.719,159.921 95.91,152.882 73.478,129.107 							"/>
						</g>
					</g>
					<g>
						<polygon style="fill:#FFFFFF;" points="134.437,93.913 156.869,117.688 169.061,110.649 146.628,86.874 						"/>
					</g>
				</g>
				<g>
					<g>
						<path style="fill:#088178;" d="M95.924,152.892c-1.127,3.204-3.426,6.278-6.083,7.813c-2.664,1.538-4.966,1.12-6.107-0.774
							L95.924,152.892z"/>
					</g>
					<g>
						<path style="fill:#FFFFFF;" d="M108.115,145.854c-1.127,3.204-3.426,6.278-6.083,7.813c-2.664,1.538-4.966,1.121-6.107-0.774
							L108.115,145.854z"/>
					</g>
					<g>
						<path style="fill:#088178;" d="M169.069,110.662c-1.126,3.204-3.426,6.278-6.083,7.813c-2.664,1.538-4.966,1.12-6.107-0.774
							L169.069,110.662z"/>
					</g>
					<g>
						<path style="fill:#FFFFFF;" d="M156.878,117.701c-1.127,3.204-3.426,6.278-6.083,7.813c-2.664,1.538-4.967,1.121-6.108-0.774
							L156.878,117.701z"/>
					</g>
					<g>
						<path style="fill:#088178;" d="M144.687,124.739c-1.127,3.204-3.426,6.278-6.083,7.813c-2.664,1.538-4.966,1.121-6.107-0.774
							L144.687,124.739z"/>
					</g>
					<g>
						<path style="fill:#FFFFFF;" d="M132.497,131.777c-1.126,3.204-3.426,6.278-6.083,7.813c-2.664,1.538-4.966,1.121-6.107-0.774
							L132.497,131.777z"/>
					</g>
					<g>
						<path style="fill:#088178;" d="M120.306,138.815c-1.127,3.204-3.426,6.278-6.083,7.813c-2.664,1.538-4.967,1.121-6.107-0.774
							L120.306,138.815z"/>
					</g>
					<g>
						<path style="fill:#FFFFFF;" d="M205.641,89.547c-1.126,3.204-3.426,6.278-6.083,7.813c-2.664,1.538-4.967,1.121-6.108-0.774
							L205.641,89.547z"/>
					</g>
					<g>
						<path style="fill:#088178;" d="M193.45,96.586c-1.126,3.204-3.426,6.278-6.083,7.813c-2.664,1.538-4.967,1.121-6.108-0.774
							L193.45,96.586z"/>
					</g>
					<g>
						<path style="fill:#FFFFFF;" d="M181.259,103.624c-1.127,3.204-3.426,6.278-6.083,7.813c-2.664,1.538-4.966,1.121-6.107-0.774
							L181.259,103.624z"/>
					</g>
					<g>
						<path style="fill:#088178;" d="M217.831,82.509c-1.126,3.204-3.425,6.278-6.083,7.813c-2.664,1.538-4.967,1.121-6.107-0.774
							L217.831,82.509z"/>
					</g>
					<g>
						<path style="fill:#088178;" d="M266.594,54.356c-1.126,3.204-3.426,6.278-6.083,7.813c-2.664,1.538-4.966,1.121-6.107-0.774
							L266.594,54.356z"/>
					</g>
					<g>
						<path style="fill:#FFFFFF;" d="M254.403,61.394c-1.126,3.204-3.425,6.278-6.083,7.813c-2.664,1.538-4.967,1.121-6.107-0.774
							L254.403,61.394z"/>
					</g>
					<g>
						<path style="fill:#088178;" d="M242.213,68.432c-1.127,3.204-3.426,6.278-6.083,7.813c-2.664,1.538-4.967,1.121-6.107-0.774
							L242.213,68.432z"/>
					</g>
					<g>
						<path style="fill:#FFFFFF;" d="M230.022,75.471c-1.127,3.204-3.426,6.278-6.083,7.813c-2.664,1.538-4.966,1.121-6.107-0.774
							L230.022,75.471z"/>
					</g>
				</g>
				<g style="opacity:0.1;">
					<g>
						<path d="M95.924,152.892c-1.127,3.204-3.426,6.278-6.083,7.813c-2.664,1.538-4.966,1.12-6.107-0.774L95.924,152.892z"/>
					</g>
					<g>
						<path d="M108.115,145.854c-1.127,3.204-3.426,6.278-6.083,7.813c-2.664,1.538-4.966,1.121-6.107-0.774L108.115,145.854z"/>
					</g>
					<g>
						<path d="M169.069,110.662c-1.126,3.204-3.426,6.278-6.083,7.813c-2.664,1.538-4.966,1.12-6.107-0.774L169.069,110.662z"/>
					</g>
					<g>
						<path d="M156.878,117.701c-1.127,3.204-3.426,6.278-6.083,7.813c-2.664,1.538-4.967,1.121-6.108-0.774L156.878,117.701z"/>
					</g>
					<g>
						<path d="M144.687,124.739c-1.127,3.204-3.426,6.278-6.083,7.813c-2.664,1.538-4.966,1.121-6.107-0.774L144.687,124.739z"/>
					</g>
					<g>
						<path d="M132.497,131.777c-1.126,3.204-3.426,6.278-6.083,7.813c-2.664,1.538-4.966,1.121-6.107-0.774L132.497,131.777z"/>
					</g>
					<g>
						<path d="M120.306,138.815c-1.127,3.204-3.426,6.278-6.083,7.813c-2.664,1.538-4.967,1.121-6.107-0.774L120.306,138.815z"/>
					</g>
					<g>
						<path d="M205.641,89.547c-1.126,3.204-3.426,6.278-6.083,7.813c-2.664,1.538-4.967,1.121-6.108-0.774L205.641,89.547z"/>
					</g>
					<g>
						<path d="M193.45,96.586c-1.126,3.204-3.426,6.278-6.083,7.813c-2.664,1.538-4.967,1.121-6.108-0.774L193.45,96.586z"/>
					</g>
					<g>
						<path d="M181.259,103.624c-1.127,3.204-3.426,6.278-6.083,7.813c-2.664,1.538-4.966,1.121-6.107-0.774L181.259,103.624z"/>
					</g>
					<g>
						<path d="M217.831,82.509c-1.126,3.204-3.425,6.278-6.083,7.813c-2.664,1.538-4.967,1.121-6.107-0.774L217.831,82.509z"/>
					</g>
					<g>
						<path d="M266.594,54.356c-1.126,3.204-3.426,6.278-6.083,7.813c-2.664,1.538-4.966,1.121-6.107-0.774L266.594,54.356z"/>
					</g>
					<g>
						<path d="M254.403,61.394c-1.126,3.204-3.425,6.278-6.083,7.813c-2.664,1.538-4.967,1.121-6.107-0.774L254.403,61.394z"/>
					</g>
					<g>
						<path d="M242.213,68.432c-1.127,3.204-3.426,6.278-6.083,7.813c-2.664,1.538-4.967,1.121-6.107-0.774L242.213,68.432z"/>
					</g>
					<g>
						<path d="M230.022,75.471c-1.127,3.204-3.426,6.278-6.083,7.813c-2.664,1.538-4.966,1.121-6.107-0.774L230.022,75.471z"/>
					</g>
				</g>
			</g>
		</g>
		<g>
			<path style="fill:#088178;" d="M112.889,165.628c7.769-1.665,12.671,4.65,12.764,11.099c0.093,6.449,0,27.345,1.526,39.454
				c-3.052,4.298-7.145,2.814-7.145,2.814C120.797,187.502,112.889,165.628,112.889,165.628z"/>
			<path style="opacity:0.3;" d="M112.889,165.628c7.769-1.665,12.671,4.65,12.764,11.099c0.093,6.449,0,27.345,1.526,39.454
				c-3.052,4.298-7.145,2.814-7.145,2.814C120.797,187.502,112.889,165.628,112.889,165.628z"/>
			<g>
				<path style="fill:#088178;" d="M127.924,291.701l-0.696,0.001c-0.846-1.781-2.465-3.465-4.888-4.864
					c-7.41-4.278-19.385-4.278-26.748,0c-2.423,1.408-4.027,3.106-4.848,4.9l-0.648,0.001v2.846l0,0
					c0.016,2.804,1.878,5.608,5.583,7.747c7.411,4.279,19.386,4.278,26.748,0c3.681-2.139,5.512-4.943,5.496-7.747h0V291.701z"/>
				<path style="opacity:0.2;" d="M127.924,291.701l-0.696,0.001c-0.846-1.781-2.465-3.465-4.888-4.864
					c-7.41-4.278-19.385-4.278-26.748,0c-2.423,1.408-4.027,3.106-4.848,4.9l-0.648,0.001v2.846l0,0
					c0.016,2.804,1.878,5.608,5.583,7.747c7.411,4.279,19.386,4.278,26.748,0c3.681-2.139,5.512-4.943,5.496-7.747h0V291.701z"/>
				<path style="fill:#088178;" d="M122.341,283.991c-7.41-4.278-19.385-4.278-26.748,0c-7.363,4.279-7.323,11.215,0.087,15.493
					c7.411,4.279,19.386,4.279,26.748,0C129.79,295.207,129.751,288.27,122.341,283.991z"/>
				<path style="opacity:0.3;fill:#FFFFFF;" d="M122.341,283.991c-7.41-4.278-19.385-4.278-26.748,0
					c-7.363,4.279-7.323,11.215,0.087,15.493c7.411,4.279,19.386,4.279,26.748,0C129.79,295.207,129.751,288.27,122.341,283.991z"/>
				<path style="fill:#088178;" d="M111.846,239.797h-5.44l-0.288,51.941h0c0.002,0.429,0.287,0.857,0.853,1.185
					c1.133,0.654,2.964,0.654,4.09,0c0.563-0.327,0.843-0.756,0.84-1.185L111.846,239.797z"/>
				<path style="opacity:0.2;" d="M111.846,239.797h-5.44l-0.288,51.941h0c0.002,0.429,0.287,0.857,0.853,1.185
					c1.133,0.654,2.964,0.654,4.09,0c0.563-0.327,0.843-0.756,0.84-1.185L111.846,239.797z"/>
				<path style="opacity:0.2;" d="M111.863,255.101l-0.016-15.304h-5.44l-0.099,17.828c1.045-0.183,2.072-0.523,3.021-0.984
					C110.222,256.208,111.06,255.682,111.863,255.101z"/>
			</g>
			<path style="fill:#455A64;" d="M97.906,172.518c-12.859,6.104-12.625,16.004-7.353,24.026c5.272,8.022,5.688,10.242,5.688,13.571
				c0,3.33-3.708,10.821-3.708,20.117s0,13.274,0,13.274c7.176,8.369,20.079,4.484,33.12-6.198c0-17.342-3.33-20.223-3.33-27.029
				c0-11.401,2.636-16.257,2.636-26.384c0-10.128-6.223-19.839-13.517-17.689C104.149,168.356,97.906,172.518,97.906,172.518z"/>
			<g>
				<path style="fill:#F0F0F0;" d="M125.93,222.496c-1.11-6.973-3.588-13.837-2.289-21.051c2.792-13.506,1.595-22.059,0.832-24.695
					c-0.763-2.636-3.954-12.417-11.584-11.122s-19.978,8.925-22.092,11.872c0,0-4.545,5.632-4.684,10.394
					c-0.139,4.762,4.371,9.526,5.351,15.146s-0.773,14.012,0.337,38.499c7.536,5.898,16.933,3.675,24.807-0.694l0.72-17.272
					l1.773,15.793c2.808-1.782,5.352-3.774,7.453-5.665C126.555,233.7,127.04,229.469,125.93,222.496z"/>
				<path style="fill:#088178;" d="M125.93,222.496c-1.11-6.973-3.588-13.837-2.289-21.051c2.792-13.506,1.595-22.059,0.832-24.695
					c-0.763-2.636-3.954-12.417-11.584-11.122s-19.978,8.925-22.092,11.872c0,0-4.545,5.632-4.684,10.394
					c-0.139,4.762,4.371,9.526,5.351,15.146s-0.773,14.012,0.337,38.499c7.536,5.898,16.933,3.675,24.807-0.694l0.72-17.272
					l1.773,15.793c2.808-1.782,5.352-3.774,7.453-5.665C126.555,233.7,127.04,229.469,125.93,222.496z"/>
				<path style="opacity:0.2;" d="M125.93,222.496c-1.11-6.973-3.588-13.837-2.289-21.051c2.792-13.506,1.595-22.059,0.832-24.695
					c-0.763-2.636-3.954-12.417-11.584-11.122s-19.978,8.925-22.092,11.872c0,0-4.545,5.632-4.684,10.394
					c-0.139,4.762,4.371,9.526,5.351,15.146s-0.773,14.012,0.337,38.499c7.536,5.898,16.933,3.675,24.807-0.694l0.72-17.272
					l1.773,15.793c2.808-1.782,5.352-3.774,7.453-5.665C126.555,233.7,127.04,229.469,125.93,222.496z"/>
				<g>
					<g>
						<path style="fill:#E0E0E0;" d="M115.261,200.82c0.506-0.292,0.916-0.058,0.917,0.523c0.002,0.581-0.406,1.288-0.911,1.58
							c-0.506,0.292-0.917,0.057-0.919-0.523C114.347,201.818,114.756,201.112,115.261,200.82z"/>
					</g>
					<g>
						<path style="fill:#E0E0E0;" d="M115.747,207.975c0.506-0.292,0.916-0.058,0.917,0.523c0.002,0.581-0.406,1.288-0.911,1.58
							c-0.506,0.292-0.917,0.057-0.919-0.524C114.832,208.973,115.241,208.266,115.747,207.975z"/>
					</g>
					<g>
						<path style="fill:#E0E0E0;" d="M116.233,215.129c0.506-0.292,0.916-0.058,0.917,0.523c0.002,0.581-0.406,1.288-0.911,1.58
							s-0.917,0.057-0.919-0.523C115.318,216.128,115.727,215.421,116.233,215.129z"/>
					</g>
				</g>
				<path style="fill:#088178;" d="M97.826,174.73c-0.03-0.373-0.033-0.733,0.017-1.064c-1.726,1.668-2.69,4.064-2.461,6.453
					c0.182,1.888,0.885,3.683,1.833,5.335c1.054-0.104,3.348-0.555,4.402-0.659c-0.587,0.815-2.415,1.977-3.002,2.792
					c3.669,4.978,9.246,8.723,15.325,9.764C113.94,197.352,98.413,182.143,97.826,174.73z"/>
				<path style="fill:#088178;" d="M116.19,183.403c-0.092-1.785-0.327-3.575-0.78-5.302c-1.008,0.3-2.07,0.534-3.083,0.654
					c0.771-0.993,1.541-1.986,2.312-2.979c-0.111-0.274-0.224-0.547-0.35-0.816c-1.228-2.63-3.068-6.22-5.971-6.22
					c0,0-0.208,0.793-0.206,1.74c0.001,0.679,0.108,1.434,0.49,2.046c3.871,5.749,5.417,20.732,5.337,24.825l0.251-0.41
					C115.741,192.62,116.425,187.989,116.19,183.403z"/>
				<path style="opacity:0.4;" d="M97.826,174.73c-0.03-0.373-0.033-0.733,0.017-1.064c-1.726,1.668-2.69,4.064-2.461,6.453
					c0.182,1.888,0.885,3.683,1.833,5.335c1.054-0.104,3.348-0.555,4.402-0.659c-0.587,0.815-2.415,1.977-3.002,2.792
					c3.669,4.978,9.246,8.723,15.325,9.764C113.94,197.352,98.413,182.143,97.826,174.73z"/>
				<path style="opacity:0.4;" d="M116.19,183.403c-0.092-1.785-0.327-3.575-0.78-5.302c-1.008,0.3-2.07,0.534-3.083,0.654
					c0.771-0.993,1.541-1.986,2.312-2.979c-0.111-0.274-0.224-0.547-0.35-0.816c-1.228-2.63-3.068-6.22-5.971-6.22
					c0,0-0.208,0.793-0.206,1.74c0.001,0.679,0.108,1.434,0.49,2.046c3.871,5.749,5.417,20.732,5.337,24.825l0.251-0.41
					C115.741,192.62,116.425,187.989,116.19,183.403z"/>
			</g>
			<path style="fill:#455A64;" d="M108.603,172.527c-0.382-0.612-0.489-1.367-0.49-2.046l-3.469-0.564l-6.379,4.205
				c-0.177,0.18-0.318,0.388-0.439,0.608c0.587,7.412,16.114,22.622,16.114,22.622C114.019,193.259,112.473,178.276,108.603,172.527
				z"/>
			<g>
				<path style="fill:#455A64;" d="M108.844,173.666h0.004c-0.003-0.007-0.006-0.018-0.008-0.025
					c-0.001-0.002-0.001-0.004-0.002-0.006c-0.259-0.754-0.58-2.962-0.58-8.804h-9.823c0,5.468-0.596,8.835-0.596,8.835h0.003
					c-0.317,1.014,0.2,2.099,1.558,2.883c2.194,1.267,5.738,1.267,7.918,0C108.668,175.766,109.173,174.68,108.844,173.666z"/>
				<path style="fill:#455A64;" d="M106.808,162.819c-1.924-1.111-5.034-1.111-6.946,0c-1.912,1.111-1.902,2.912,0.022,4.023
					c1.924,1.111,5.034,1.111,6.946,0C108.743,165.732,108.733,163.93,106.808,162.819z"/>
				<path style="opacity:0.3;fill:#FFFFFF;" d="M106.808,162.819c-1.924-1.111-5.034-1.111-6.946,0
					c-1.912,1.111-1.902,2.912,0.022,4.023c1.924,1.111,5.034,1.111,6.946,0C108.743,165.732,108.733,163.93,106.808,162.819z"/>
			</g>
			<path style="fill:#088178;" d="M89.758,178.924c-7.598,5.701-10.66,10.782-8.658,59.733c3.112,2.891,9.989,0,9.989,0
				c-0.773-29.434,3.637-40.03,1.016-52.49C90.454,179.243,89.758,178.924,89.758,178.924z"/>
			<path style="opacity:0.3;" d="M89.758,178.924c-7.598,5.701-10.66,10.782-8.658,59.733c3.112,2.891,9.989,0,9.989,0
				c-0.773-29.434,3.637-40.03,1.016-52.49C90.454,179.243,89.758,178.924,89.758,178.924z"/>
		</g>
		<g>
			<g>
				<path style="fill:#088178;" d="M184.957,260.93l-0.696,0.001c-0.846-1.781-2.465-3.465-4.888-4.864
					c-7.41-4.278-19.385-4.278-26.748,0c-2.423,1.408-4.027,3.106-4.848,4.9l-0.648,0.001v2.846l0,0
					c0.016,2.804,1.878,5.607,5.583,7.747c7.411,4.279,19.386,4.278,26.748,0c3.681-2.139,5.512-4.943,5.496-7.747h0V260.93z"/>
				<path style="opacity:0.2;" d="M184.957,260.93l-0.696,0.001c-0.846-1.781-2.465-3.465-4.888-4.864
					c-7.41-4.278-19.385-4.278-26.748,0c-2.423,1.408-4.027,3.106-4.848,4.9l-0.648,0.001v2.846l0,0
					c0.016,2.804,1.878,5.607,5.583,7.747c7.411,4.279,19.386,4.278,26.748,0c3.681-2.139,5.512-4.943,5.496-7.747h0V260.93z"/>
				<path style="fill:#088178;" d="M179.373,253.22c-7.41-4.278-19.385-4.278-26.748,0c-7.363,4.279-7.324,11.215,0.087,15.493
					c7.411,4.279,19.386,4.278,26.748,0C186.823,264.435,186.784,257.499,179.373,253.22z"/>
				<path style="opacity:0.3;fill:#FFFFFF;" d="M179.373,253.22c-7.41-4.278-19.385-4.278-26.748,0
					c-7.363,4.279-7.324,11.215,0.087,15.493c7.411,4.279,19.386,4.278,26.748,0C186.823,264.435,186.784,257.499,179.373,253.22z"
					/>
				<path style="fill:#088178;" d="M168.879,209.026h-5.44l-0.288,51.941h0c0.002,0.429,0.287,0.857,0.854,1.184
					c1.133,0.654,2.964,0.654,4.09,0c0.563-0.327,0.843-0.756,0.84-1.184L168.879,209.026z"/>
				<path style="opacity:0.2;" d="M168.879,209.026h-5.44l-0.288,51.941h0c0.002,0.429,0.287,0.857,0.854,1.184
					c1.133,0.654,2.964,0.654,4.09,0c0.563-0.327,0.843-0.756,0.84-1.184L168.879,209.026z"/>
				<path style="opacity:0.2;" d="M168.895,224.33l-0.016-15.304h-5.44l-0.099,17.828c1.045-0.183,2.072-0.522,3.021-0.983
					C167.255,225.437,168.093,224.911,168.895,224.33z"/>
			</g>
			<g>
				<path style="fill:#455A64;" d="M157.766,211.92c0,0-1.418,5.156-5.414,5.542c0.689-7.698-4.459-28.403,1.554-40.021
					c1.803-3.484,1.728-7.672-0.176-11.101c-0.854-1.538-1.719-2.689-2.344-2.819c-4.769-1.611-8.7-10.118-4.125-13.663
					c5.994-5.22,13.792-10.361,20.945-12.366c1.998-0.394,6.702,1.41,6.251,7.984c7.669,9.688,5.607,13.856,2.642,16.692
					l-0.309,5.563c-0.12,2.158,0.353,4.3,1.348,6.218c6.078,11.728,2.227,32.132,4.504,41.839
					C169.496,222.747,156.348,221.974,157.766,211.92z"/>
				<g>
					<path style="fill:#088178;" d="M178.139,173.948c-0.376-0.725-0.651-1.488-0.874-2.265c-2.99,2.212-6.486,3.742-10.15,4.387
						c-4.098,0.722-8.377,0.34-12.294-1.062c-0.216,0.834-0.511,1.653-0.915,2.433c-6.013,11.619-0.865,32.324-1.554,40.021
						c3.996-0.387,5.414-5.542,5.414-5.542c-1.418,10.054,11.729,10.827,24.876,3.867
						C180.366,206.08,184.217,185.676,178.139,173.948z"/>
					<path style="fill:#088178;" d="M167.115,176.07c3.664-0.645,7.16-2.175,10.15-4.387c-0.354-1.234-0.528-2.515-0.472-3.809
						c-2.98,2.193-6.457,3.71-10.102,4.351c-3.828,0.674-7.815,0.384-11.517-0.798c0.065,1.202-0.05,2.408-0.353,3.581
						C158.738,176.41,163.017,176.792,167.115,176.07z"/>
					<path style="fill:#088178;" d="M166.691,172.226c3.644-0.642,7.122-2.158,10.102-4.351c0.002-0.048-0.005-0.096-0.002-0.145
						l0.309-5.563c2.965-2.836,5.027-7.003-2.642-16.692c-1.623-2.045-5.329-5.601-7.473-7.611
						c-0.888,0.289-1.784,0.624-2.684,0.997c1.82,1.469,3.395,3.242,4.615,5.238c0.52,0.851,0.987,1.77,1.073,2.764
						c0.112,1.293-0.442,2.574-1.257,3.584c-1.209,1.499-3.015,2.503-4.927,2.736c-1.912,0.233-3.907-0.306-5.441-1.47
						c-2.236-1.698-3.487-4.591-5.786-6.087c-0.702,0.51-1.393,1.029-2.068,1.556c2.445,2.005,4.471,4.562,5.488,7.545
						c1.131,3.318,0.899,7.18-1.041,10.101c-0.343,0.517-0.794,1.019-1.31,1.367c0.027,0.048,0.055,0.094,0.082,0.143
						c0.879,1.582,1.349,3.327,1.444,5.088C158.876,172.61,162.863,172.9,166.691,172.226z"/>
				</g>
				<path style="opacity:0.3;" d="M178.139,173.948c-0.376-0.725-0.651-1.488-0.874-2.265c-2.99,2.212-6.486,3.742-10.15,4.387
					c-4.098,0.722-8.377,0.34-12.294-1.062c-0.216,0.834-0.511,1.653-0.915,2.433c-6.013,11.619-0.865,32.324-1.554,40.021
					c3.996-0.387,5.414-5.542,5.414-5.542c-1.418,10.054,11.729,10.827,24.876,3.867
					C180.366,206.08,184.217,185.676,178.139,173.948z"/>
				<path style="opacity:0.4;" d="M167.115,176.07c3.664-0.645,7.16-2.175,10.15-4.387c-0.354-1.234-0.528-2.515-0.472-3.809
					c-2.98,2.193-6.457,3.71-10.102,4.351c-3.828,0.674-7.815,0.384-11.517-0.798c0.065,1.202-0.05,2.408-0.353,3.581
					C158.738,176.41,163.017,176.792,167.115,176.07z"/>
				<path style="opacity:0.3;" d="M166.691,172.226c3.644-0.642,7.122-2.158,10.102-4.351c0.002-0.048-0.005-0.096-0.002-0.145
					l0.309-5.563c2.965-2.836,5.027-7.003-2.642-16.692c-1.623-2.045-5.329-5.601-7.473-7.611c-0.888,0.289-1.784,0.624-2.684,0.997
					c1.82,1.469,3.395,3.242,4.615,5.238c0.52,0.851,0.987,1.77,1.073,2.764c0.112,1.293-0.442,2.574-1.257,3.584
					c-1.209,1.499-3.015,2.503-4.927,2.736c-1.912,0.233-3.907-0.306-5.441-1.47c-2.236-1.698-3.487-4.591-5.786-6.087
					c-0.702,0.51-1.393,1.029-2.068,1.556c2.445,2.005,4.471,4.562,5.488,7.545c1.131,3.318,0.899,7.18-1.041,10.101
					c-0.343,0.517-0.794,1.019-1.31,1.367c0.027,0.048,0.055,0.094,0.082,0.143c0.879,1.582,1.349,3.327,1.444,5.088
					C158.876,172.61,162.863,172.9,166.691,172.226z"/>
				<g>
					<path style="fill:#455A64;" d="M167.042,146.327h0.004c-0.003-0.007-0.005-0.018-0.008-0.026
						c-0.001-0.002-0.001-0.004-0.002-0.006c-0.259-0.754-0.58-2.962-0.58-8.803h-9.823c0,5.468-0.596,8.835-0.596,8.835h0.003
						c-0.317,1.014,0.2,2.099,1.558,2.883c2.194,1.266,5.738,1.266,7.918,0C166.865,148.426,167.37,147.34,167.042,146.327z"/>
					<path style="fill:#455A64;" d="M165.005,135.48c-1.924-1.111-5.034-1.111-6.946,0c-1.912,1.111-1.902,2.912,0.022,4.023
						c1.924,1.111,5.034,1.111,6.946,0C166.94,138.392,166.93,136.591,165.005,135.48z"/>
					<path style="opacity:0.3;fill:#FFFFFF;" d="M165.005,135.48c-1.924-1.111-5.034-1.111-6.946,0
						c-1.912,1.111-1.902,2.912,0.022,4.023c1.924,1.111,5.034,1.111,6.946,0C166.94,138.392,166.93,136.591,165.005,135.48z"/>
				</g>
			</g>
		</g>
	</g>
</g>
<g id="Character_2_1_">
	<g>
		<g>
			<g>
				<path style="fill:#455A64;" d="M327.538,312.06c-0.032-0.016-0.063-0.037-0.09-0.064c-0.141-0.137-0.144-0.362-0.006-0.502
					l5.895-6.066c1.617-1.704,3.45-3.636,6.033-3.816c0.954-0.068,1.737,0.624,2.059,1.295c0.307,0.638,0.249,1.28-0.153,1.718
					l-5.919,6.568c-0.132,0.145-0.354,0.161-0.502,0.026c-0.146-0.131-0.157-0.356-0.026-0.502l5.922-6.57
					c0.289-0.314,0.123-0.757,0.038-0.932c-0.228-0.476-0.773-0.937-1.369-0.894c-2.308,0.16-3.965,1.907-5.567,3.596l-0.47,0.493
					l-5.432,5.58C327.84,312.103,327.672,312.127,327.538,312.06z"/>
			</g>
			<g>
				<polygon style="fill:#455A64;" points="343.952,310.818 344.762,307.849 320.238,309.315 299.779,336.063 306.943,345.81 
					334.216,344.074 345.757,311.712 				"/>
				<polygon style="opacity:0.3;fill:#FFFFFF;" points="343.952,310.818 344.762,307.849 320.238,309.315 299.779,336.063 
					306.943,345.81 334.216,344.074 345.757,311.712 				"/>
				<polygon style="opacity:0.2;" points="324.297,310.995 306.488,338.132 306.943,345.81 				"/>
				<polygon style="opacity:0.1;" points="299.779,336.063 306.488,338.132 306.943,345.81 				"/>
				<polygon style="opacity:0.3;" points="320.238,309.315 344.762,307.849 342.572,310.135 345.757,311.712 323.114,313.384 
					324.297,310.995 				"/>
				<polygon style="opacity:0.2;" points="342.572,310.135 341.962,311.993 345.757,311.712 				"/>
			</g>
			<g>
				<path style="fill:#455A64;" d="M330.212,315.512c-0.176-0.087-0.248-0.301-0.161-0.476l4.135-8.346
					c1.247-2.516,3.761-4.2,6.563-4.394c0.738-0.051,1.421,0.285,1.831,0.897c0.409,0.612,0.459,1.373,0.132,2.033l-4.627,9.338
					c-0.087,0.176-0.3,0.248-0.476,0.161c-0.176-0.087-0.248-0.3-0.161-0.476l4.627-9.339c0.213-0.43,0.181-0.924-0.086-1.323
					c-0.265-0.398-0.712-0.617-1.19-0.583c-2.551,0.177-4.84,1.71-5.975,4l-4.135,8.346
					C330.601,315.527,330.388,315.599,330.212,315.512z"/>
			</g>
		</g>
		<path style="fill:#FFA8A7;" d="M350.34,238.715c-8.056,2.053-10.763,9.05-11.869,15.951c-1.106,6.901-1.418,14.737-1.418,14.737
			c-2.251,7.345-2.606,20.968-3.791,24.64s-2.902,7.042-0.829,9.622c0.752,0.936,1.539,2.068,2.65,2.523
			c1.111,0.455,2.411,0.425,3.499-0.081c1.733-0.807,2.763-2.694,3.047-4.585c0.283-1.891-0.062-3.813-0.41-5.693
			c-0.349-1.88-0.704-3.799-0.439-5.693c1.408-10.091,4.241-24.547,6.064-34.571L350.34,238.715z"/>
		<g>
			<g>
				<path style="fill:#455A64;" d="M330.527,315.107c-0.036,0-0.073-0.006-0.109-0.017c-0.187-0.06-0.29-0.26-0.229-0.447
					l2.589-8.053c0.692-2.245,1.477-4.79,3.712-6.098c0.825-0.484,1.833-0.212,2.42,0.246c0.558,0.435,0.791,1.036,0.626,1.608
					l-2.388,8.513c-0.054,0.189-0.245,0.302-0.439,0.246c-0.189-0.053-0.299-0.249-0.246-0.438l2.389-8.516
					c0.119-0.41-0.226-0.733-0.379-0.852c-0.415-0.325-1.109-0.496-1.623-0.193c-1.997,1.168-2.706,3.469-3.392,5.694l-0.203,0.65
					l-2.39,7.411C330.817,315.011,330.677,315.107,330.527,315.107z"/>
			</g>
			<g>
				<polygon style="fill:#088178;" points="327.151,318.257 327.058,354.492 350.725,340.828 346.697,306.706 				"/>
				<polygon style="fill:#088178;" points="327.151,318.257 327.151,315.591 322.768,315.887 316.312,348.939 327.058,354.492 				
					"/>
				<polygon style="fill:#088178;" points="327.151,315.591 323.242,347.813 327.058,354.492 				"/>
				<polygon style="opacity:0.2;" points="327.151,315.591 323.242,347.813 327.058,354.492 				"/>
				<polygon style="fill:#088178;" points="316.312,348.939 323.242,347.813 327.058,354.492 				"/>
				<polygon style="opacity:0.1;" points="316.312,348.939 323.242,347.813 327.058,354.492 				"/>
				<polygon style="fill:#088178;" points="322.768,315.887 344.091,303.685 343.144,306.706 346.697,306.706 327.151,318.257 
					327.151,315.591 				"/>
				<polygon style="opacity:0.3;" points="322.768,315.887 344.091,303.685 343.144,306.706 346.697,306.706 327.151,318.257 
					327.151,315.591 				"/>
				<polygon style="fill:#088178;" points="343.144,306.706 343.422,308.642 346.697,306.706 				"/>
				<polygon style="opacity:0.2;" points="343.144,306.706 343.422,308.642 346.697,306.706 				"/>
				<polygon style="fill:#088178;" points="344.091,303.685 344.684,306.706 343.144,306.706 				"/>
			</g>
			<g>
				<path style="fill:#455A64;" d="M334.456,317.013c-0.196,0-0.355-0.159-0.355-0.355v-9.314c0-2.808,1.506-5.433,3.93-6.851
					c0.639-0.373,1.4-0.375,2.039-0.009c0.639,0.367,1.021,1.026,1.021,1.764v10.422c0,0.196-0.159,0.355-0.355,0.355
					c-0.196,0-0.355-0.159-0.355-0.355v-10.422c0-0.479-0.248-0.908-0.664-1.147c-0.414-0.239-0.912-0.237-1.325,0.006
					c-2.207,1.291-3.578,3.681-3.578,6.237v9.314C334.811,316.853,334.652,317.013,334.456,317.013z"/>
			</g>
		</g>
		<g>
			<path style="fill:#FFA8A7;" d="M372.12,275.715c8.794,21.749,0.841,37.77-8.393,59.133c5.603,4.874,14.787,15.459,23.275,34.034
				c0,0-0.032,4.522-6.216,4.23c-1.093-1.69-23.337-22.863-23.337-22.863l-13.742,35.065c0,0-3.432,2.204-7.676-2.668
				c0,0,6.96-40.96,9.603-50.913c-4.004-9.748-9.633-26.738-1.266-55.814L372.12,275.715z"/>
			<path style="opacity:0.2;" d="M346.389,329.086c3.384-15.932,6.675-26.642,6.675-26.642c-5.845-3.717-7.529-7.268-7.529-7.268
				c0.546,5.524,5.04,8.925,5.04,8.925C347.926,313.186,346.389,329.086,346.389,329.086z"/>
			<path style="opacity:0.2;" d="M357.448,350.248c1.3-3.664,2.839-6.922,2.839-6.922l3.44-8.478c0,0-3.818,15.154-4.602,16.999
				L357.448,350.248z"/>
			<g>
				<path style="fill:#FFA8A7;" d="M327.438,399.525c4.198,0.202,8.851-4.046,10.924-5.513c2.074-1.467,3.439-1.416,4.425-6.076
					l0.919-2.623l-7.676-2.668l-0.893,4.535c-0.18,0.913-0.653,1.743-1.348,2.362l-6.403,5.708
					c-0.974,0.901-2.051,1.685-3.206,2.336l-0.208,0.117C323.886,398.534,324.6,399.388,327.438,399.525z"/>
				<path style="fill:#37474F;" d="M342.788,387.936c-0.986,4.66-2.352,4.609-4.425,6.076c-2.074,1.467-6.727,5.715-10.924,5.513
					c-2.838-0.137-3.552-0.99-3.465-1.821l-2.971,1.675c-1.679,0.946-2.058,3.292-0.645,4.602c0.01,0.009,0.021,0.019,0.031,0.028
					c1.033,0.936,2.455,1.331,3.844,1.451c2.649,0.229,5.37-0.456,7.594-1.914c1.785-1.17,3.27-2.824,5.237-3.652
					c1.054-0.444,2.196-0.627,3.295-0.947c1.098-0.319,2.202-0.81,2.914-1.705c0.844-1.061,1.001-2.513,0.928-3.867
					C344.098,391.492,343.615,389.631,342.788,387.936z"/>
			</g>
			<g>
				<path style="fill:#FFA8A7;" d="M382.731,388.482c0.669,0.382,1.52,0.29,2.229-0.009c1.415-0.597,2.419-1.924,2.97-3.358
					c0.612-1.591,0.737-3.324,0.909-5.013c0.115-1.151,0.229-2.301,0.343-3.452c0.097-1.09,0.264-2.206,0.089-3.295
					c-0.145-0.901-0.559-1.763-1.293-2.305l-1.914-4.177l-6.276,5.107l1.846,1.924c0.683,0.712,1.062,1.662,1.056,2.648
					l-0.052,8.209c0,0.908-0.239,1.783-0.665,2.564C382.028,387.788,382.317,388.246,382.731,388.482z"/>
				<path style="fill:#37474F;" d="M391.845,373.956c-0.431-1.688-2.125-2.962-3.866-2.906c0.733,0.543,1.148,1.405,1.293,2.305
					c0.145,0.901,0.055,1.82-0.035,2.728c-0.149,1.507-0.299,3.014-0.448,4.52c-0.151,1.528-0.308,3.078-0.859,4.511
					c-0.551,1.434-1.555,2.761-2.97,3.358c-0.71,0.299-1.561,0.391-2.229,0.009c-0.413-0.236-0.702-0.695-0.757-1.158
					c-0.283,0.52-0.647,0.998-1.086,1.414c-0.274,0.259-0.524,0.521-0.727,0.759c-0.61,0.713-0.907,1.779-0.464,2.607
					c0.471,0.881,1.566,1.194,2.554,1.347c1.462,0.227,2.976,0.29,4.406-0.089c1.43-0.379,2.776-1.242,3.502-2.531
					c0.618-1.098,0.746-2.395,0.86-3.649l0.802-8.787c0.082-0.903,0.147-1.807,0.168-2.714
					C392.003,375.101,391.988,374.517,391.845,373.956z"/>
			</g>
		</g>
		<g>
			<path style="fill:#455A64;" d="M373.204,240.077c-4.028-1.244-12.532-2.192-22.863-1.362c-0.456,2.488-2.729,4.953-4.585,6.671
				c-1.857,1.718-3.948,3.193-5.61,5.1c-1.662,1.907-2.887,4.401-2.532,6.906c0.127,0.898,0.464,1.762,0.962,2.52
				c1.364,2.071,2.157,4.47,2.569,6.915c0.751,4.461,1.852,8.818,1.852,8.818c-4.344,13.674-6.397,39.894-6.397,39.894
				c11.609,10.662,27.959,8.827,34.118-0.829c2.962,5.686,7.598,6.752,10.662,7.582c0.291-13.807-1.002-29.205-5.107-39.824
				c-2.92-7.553-4.086-15.678-3.37-23.744C373.853,248.009,373.204,240.077,373.204,240.077z"/>
			<path style="opacity:0.2;" d="M364.752,258.409c-1.435,2.214-3.778,3.819-6.361,4.357c-2.583,0.538-5.372,0.002-7.572-1.455
				c1.719,2.603,4.873,4.214,7.945,3.674C361.837,264.445,364.022,261.441,364.752,258.409z"/>
		</g>
		<g>
			<path style="fill:#263238;" d="M345.711,223.739c-1.51-1.532-2.473-3.593-2.678-5.734c-0.205-2.141,0.348-4.347,1.539-6.138
				c-1.293-0.468-2.137-1.914-2.018-3.283c0.119-1.37,1.237-2.59,2.591-2.828c1.15-0.202,2.3,0.24,3.44,0.487
				c1.938,0.421,3.955,0.28,5.918-0.004c1.963-0.284,3.909-0.709,5.887-0.853c1.978-0.144,4.024,0.008,5.83,0.829
				c1.806,0.821,3.343,2.39,3.769,4.327c1.524-0.409,3.34,0.57,4.318,1.808c0.978,1.238,1.355,2.858,1.419,4.435
				c0.064,1.577-0.155,3.15-0.235,4.726c-0.08,1.576-0.012,3.2,0.595,4.657c0.71,1.705,2.12,3.094,2.572,4.885
				c0.416,1.647-0.099,3.497-1.307,4.692c-1.208,1.195-3.063,1.69-4.706,1.256c0.328-1.26,0.51-2.533,0.457-3.834
				c-0.15,1.736-1.881,3.092-3.522,3.676c-1.642,0.584-3.432,0.522-5.173,0.454c-2.043-0.08-4.086-0.161-6.129-0.241
				c-2.379-0.094-4.759-0.187-7.138-0.281c-1.271-0.05-2.579-0.109-3.734-0.642c-2.039-0.943-3.196-3.243-3.325-5.487
				C343.952,228.401,344.83,225.806,345.711,223.739z"/>
			<g>
				<path style="fill:#FFA8A7;" d="M354.832,234.468l0.304,5.212c-0.774,0.64-1.625,1.419-2.031,2.338
					c-0.406,0.919-0.281,2.156,0.551,2.719c0.53,0.359,1.216,0.374,1.855,0.331c3.329-0.221,6.552-1.715,8.896-4.086
					c0.521-0.527,0.827-1.23,0.842-1.971l0.193-9.741L354.832,234.468z"/>
				<path style="opacity:0.2;" d="M364.752,229.608l-9.92,4.859c0.057,0.889,0.113,1.777,0.17,2.666
					c1.995-0.298,3.92-1.07,5.553-2.253C362.397,233.546,363.859,231.699,364.752,229.608z"/>
			</g>
			<path style="fill:#FFA8A7;" d="M363.45,221.913c-0.105,0.612-0.215,1.842-0.115,2.455c0.1,0.613,0.363,1.212,0.813,1.64
				c0.451,0.428,1.046,0.615,1.654,0.488c-0.322-1.6,0.792-3.354,2.378-3.742s3.384,0.653,3.836,2.222
				c0.325,1.125-0.002,2.37-0.67,3.333c-0.668,0.962-1.644,1.672-2.674,2.229c-1.219,0.445-2.585-0.141-3.229-1.267
				c-3.114,3.948-8.544,6.91-13.631,6.484c-1.382-0.116-2.773-0.515-3.869-1.364c-1.924-1.49-2.066-3.736-2.31-5.954
				c-0.309-2.808-0.386-5.662,0.065-8.46c0.624-3.866,2.345-7.666,5.346-10.182C352.788,218.201,360.499,221.293,363.45,221.913z"/>
			<g>
				<polygon style="fill:#F28F8F;" points="352.856,220.956 349.373,225.25 352.613,226.364 				"/>
				<path style="fill:#F28F8F;" d="M355.586,228.455c-0.904,0.287-1.808,0.573-2.712,0.86c0.284,0.629,1.175,1.015,1.839,0.827
					C355.378,229.953,355.675,229.14,355.586,228.455z"/>
				<path style="opacity:0.3;" d="M355.586,228.455c-0.904,0.287-1.808,0.573-2.712,0.86c0.284,0.629,1.175,1.015,1.839,0.827
					C355.378,229.953,355.675,229.14,355.586,228.455z"/>
				<path style="fill:#F28F8F;" d="M353.823,230.096c0.296,0.098,0.613,0.125,0.891,0.046c0.521-0.148,0.813-0.681,0.873-1.235
					c-0.359-0.051-0.737,0.013-1.048,0.201C354.179,229.323,353.924,229.69,353.823,230.096z"/>
				<path style="fill:#263238;" d="M357.653,221.85c-0.024,0.533-0.476,0.947-1.009,0.922c-0.534-0.024-0.947-0.476-0.923-1.01
					c0.024-0.533,0.476-0.947,1.01-0.922C357.264,220.864,357.677,221.316,357.653,221.85z"/>
				<path style="fill:#263238;" d="M349.557,221.172c-0.024,0.533-0.476,0.946-1.009,0.923c-0.534-0.024-0.947-0.476-0.923-1.01
					c0.024-0.534,0.476-0.947,1.01-0.923C349.168,220.186,349.581,220.638,349.557,221.172z"/>
				<path style="fill:#263238;" d="M348.79,217.285c-0.736,0.461-1.472,0.923-2.208,1.384c-0.189-0.517,0.045-1.168,0.487-1.497
					C347.51,216.843,348.348,216.956,348.79,217.285z"/>
				<path style="fill:#263238;" d="M357.067,217.541c0.692,0.526,1.383,1.051,2.075,1.577c0.235-0.499,0.06-1.167-0.35-1.535
					C358.382,217.216,357.537,217.253,357.067,217.541z"/>
			</g>
		</g>
		<g>
			<g>
				<g>
					<path style="fill:#455A64;" d="M371.09,316.842c-0.036,0-0.073-0.006-0.109-0.017c-0.187-0.06-0.29-0.26-0.229-0.447
						l2.589-8.053c0.692-2.245,1.477-4.79,3.712-6.098c0.825-0.485,1.833-0.212,2.42,0.246c0.558,0.435,0.791,1.036,0.626,1.608
						l-2.388,8.513c-0.054,0.189-0.245,0.302-0.439,0.246c-0.189-0.053-0.299-0.249-0.246-0.438l2.389-8.516
						c0.12-0.41-0.226-0.733-0.379-0.852c-0.416-0.325-1.109-0.496-1.623-0.193c-1.997,1.168-2.706,3.469-3.392,5.694l-0.203,0.651
						l-2.39,7.411C371.379,316.746,371.24,316.842,371.09,316.842z"/>
				</g>
				<g>
					<polygon style="fill:#088178;" points="367.713,319.991 367.621,356.226 391.288,342.562 387.26,308.441 					"/>
					<polygon style="fill:#088178;" points="367.713,319.991 367.713,317.326 363.33,317.622 356.874,350.673 367.621,356.226 					
						"/>
					<polygon style="fill:#088178;" points="367.713,317.326 363.804,349.548 367.621,356.226 					"/>
					<polygon style="opacity:0.2;" points="367.713,317.326 363.804,349.548 367.621,356.226 					"/>
					<polygon style="fill:#088178;" points="356.874,350.673 363.804,349.548 367.621,356.226 					"/>
					<polygon style="opacity:0.1;" points="356.874,350.673 363.804,349.548 367.621,356.226 					"/>
					<polygon style="fill:#088178;" points="363.33,317.622 384.654,305.42 383.706,308.441 387.26,308.441 367.713,319.991 
						367.713,317.326 					"/>
					<polygon style="opacity:0.3;" points="363.33,317.622 384.654,305.42 383.706,308.441 387.26,308.441 367.713,319.991 
						367.713,317.326 					"/>
					<polygon style="fill:#088178;" points="383.706,308.441 383.984,310.377 387.26,308.441 					"/>
					<polygon style="opacity:0.2;" points="383.706,308.441 383.984,310.377 387.26,308.441 					"/>
					<polygon style="fill:#088178;" points="384.654,305.42 385.246,308.441 383.706,308.441 					"/>
				</g>
				<g>
					<path style="fill:#455A64;" d="M375.018,318.747c-0.196,0-0.355-0.159-0.355-0.355v-9.314c0-2.808,1.506-5.433,3.93-6.851
						c0.639-0.373,1.4-0.375,2.039-0.009c0.639,0.367,1.021,1.026,1.021,1.764v10.422c0,0.196-0.159,0.355-0.355,0.355
						c-0.196,0-0.355-0.159-0.355-0.355v-10.422c0-0.479-0.248-0.908-0.664-1.147c-0.414-0.239-0.912-0.237-1.325,0.006
						c-2.207,1.291-3.578,3.681-3.578,6.237v9.314C375.374,318.588,375.214,318.747,375.018,318.747z"/>
				</g>
			</g>
			<g>
				<g>
					<path style="fill:#455A64;" d="M375.223,320.279c-0.034,0.013-0.07,0.021-0.108,0.023c-0.196,0.01-0.363-0.141-0.373-0.337
						l-0.437-8.447c-0.15-2.345-0.319-5.002,1.307-7.018c0.599-0.746,1.639-0.849,2.35-0.629c0.676,0.209,1.107,0.688,1.155,1.281
						l0.789,8.806c0.017,0.195-0.122,0.369-0.323,0.386c-0.195,0.018-0.368-0.127-0.385-0.322l-0.789-8.81
						c-0.034-0.426-0.471-0.605-0.657-0.662c-0.504-0.157-1.213-0.07-1.586,0.396c-1.453,1.801-1.299,4.203-1.151,6.527l0.042,0.68
						l0.396,7.777C375.459,320.086,375.363,320.226,375.223,320.279z"/>
				</g>
				<g>
					<polygon style="fill:#E0E0E0;" points="373.184,324.421 385.955,358.331 403.233,337.158 387.359,306.687 					"/>
					<polygon style="fill:#E0E0E0;" points="373.184,324.421 372.238,321.929 368.245,323.762 373.937,356.953 385.955,358.331 
											"/>
					<polygon style="fill:#E0E0E0;" points="372.238,321.929 380.017,353.442 385.955,358.331 					"/>
					<polygon style="opacity:0.2;" points="372.238,321.929 380.017,353.442 385.955,358.331 					"/>
					<polygon style="fill:#E0E0E0;" points="373.937,356.953 380.017,353.442 385.955,358.331 					"/>
					<polygon style="opacity:0.1;" points="373.937,356.953 380.017,353.442 385.955,358.331 					"/>
					<polygon style="fill:#E0E0E0;" points="368.245,323.762 383.851,304.787 384.037,307.948 387.359,306.687 373.184,324.421 
						372.238,321.929 					"/>
					<polygon style="opacity:0.3;" points="368.245,323.762 383.851,304.787 384.037,307.948 387.359,306.687 373.184,324.421 
						372.238,321.929 					"/>
					<polygon style="fill:#E0E0E0;" points="384.037,307.948 384.984,309.659 387.359,306.687 					"/>
					<polygon style="opacity:0.2;" points="384.037,307.948 384.984,309.659 387.359,306.687 					"/>
					<polygon style="fill:#E0E0E0;" points="383.851,304.787 385.477,307.401 384.037,307.948 					"/>
				</g>
				<g>
					<path style="fill:#455A64;" d="M379.572,320.666c-0.183,0.07-0.389-0.023-0.458-0.206l-3.305-8.708
						c-0.996-2.625-0.52-5.614,1.243-7.8c0.465-0.575,1.176-0.848,1.903-0.732c0.727,0.117,1.319,0.597,1.58,1.286l3.698,9.744
						c0.07,0.183-0.023,0.389-0.206,0.458c-0.184,0.07-0.389-0.023-0.458-0.206l-3.698-9.744c-0.17-0.448-0.554-0.761-1.028-0.836
						c-0.471-0.077-0.936,0.102-1.237,0.475c-1.605,1.99-2.039,4.711-1.132,7.101l3.305,8.708
						C379.848,320.391,379.755,320.597,379.572,320.666z"/>
				</g>
			</g>
			<path style="fill:#FFA8A7;" d="M379.682,309.65c2.685,0,5.061-1.742,5.847-4.31c0.661-2.16,1.307-5.206,1.702-9.414
				c0.584-6.233,1.441-14.031,1.905-18.17c0.221-1.973,0.109-3.965-0.327-5.902c-2.173-9.65-4.799-18.348-6.578-23.83
				c-1.211-3.732-4.232-6.587-8.026-7.584l-1.74-0.457c-2.162,4.464-1.465,10.707-1.465,10.707l7.931,24.275
				c-0.209,6.382,1.883,18.101,0.732,21.135c-0.27,0.688-0.944,1.433-1.583,2.03c-0.897,0.839-1.633,1.831-2.215,2.912
				c-0.577,1.072-1.212,2.003-1.68,2.639c-0.364,0.495-0.241,1.191,0.273,1.528l0,0c0.354,0.232,0.814,0.239,1.167,0.007
				c1.066-0.702,1.996-1.771,2.26-2.21c-0.415,2.496-1.898,2.977-2.813,3.027c-0.483,0.026-0.918,0.293-1.138,0.724l0,0
				c-0.369,0.725-0.26,1.602,0.276,2.214l0,0c0.378,0.432,0.924,0.679,1.497,0.679L379.682,309.65z"/>
			<path style="fill:#455A64;" d="M375.705,305.159c-0.156,0.274-0.295,0.558-0.417,0.849c-0.404,0.96-0.625,2.001-0.625,3.07v0.264
				c0.218,0.135,0.457,0.229,0.711,0.272v-0.536c0-1.185,0.306-2.329,0.842-3.35c0.379-0.722,0.878-1.376,1.48-1.936
				c0.075-0.238,0.14-0.496,0.188-0.786C377.627,303.434,376.737,304.457,375.705,305.159z"/>
		</g>
	</g>
</g>
<g id="Character_1">
	<g>
		<g>
			<g>
				<path style="fill:#455A64;" d="M210.887,274.41c-0.035-0.009-0.069-0.025-0.101-0.045c-0.164-0.108-0.21-0.328-0.102-0.492
					l4.633-7.077c1.263-1.981,2.695-4.226,5.197-4.894c0.924-0.248,1.824,0.282,2.268,0.88c0.423,0.568,0.488,1.209,0.177,1.716
					l-4.561,7.574c-0.102,0.168-0.316,0.226-0.488,0.121c-0.168-0.101-0.222-0.319-0.121-0.487l4.563-7.577
					c0.224-0.364-0.023-0.766-0.14-0.922c-0.314-0.424-0.938-0.772-1.514-0.617c-2.236,0.596-3.529,2.626-4.781,4.59l-0.368,0.573
					l-4.27,6.511C211.191,274.395,211.031,274.45,210.887,274.41z"/>
			</g>
			<g>
				<polygon style="fill:#088178;" points="206.796,276.551 197.092,311.463 223.536,304.568 228.706,270.601 				"/>
				<polygon style="fill:#088178;" points="206.796,276.551 207.503,273.981 203.199,273.103 188.204,303.257 197.092,311.463 				
					"/>
				<polygon style="fill:#088178;" points="207.503,273.981 195.184,304.011 197.092,311.463 				"/>
				<polygon style="opacity:0.2;" points="207.503,273.981 195.184,304.011 197.092,311.463 				"/>
				<polygon style="fill:#088178;" points="188.204,303.257 195.184,304.011 197.092,311.463 				"/>
				<polygon style="opacity:0.1;" points="188.204,303.257 195.184,304.011 197.092,311.463 				"/>
				<polygon style="fill:#088178;" points="203.199,273.103 226.995,266.997 225.28,269.658 228.706,270.601 206.796,276.551 
					207.503,273.981 				"/>
				<polygon style="opacity:0.3;" points="203.199,273.103 226.995,266.997 225.28,269.658 228.706,270.601 206.796,276.551 
					207.503,273.981 				"/>
				<polygon style="fill:#088178;" points="225.28,269.658 225.035,271.598 228.706,270.601 				"/>
				<polygon style="opacity:0.2;" points="225.28,269.658 225.035,271.598 228.706,270.601 				"/>
				<polygon style="fill:#088178;" points="226.995,266.997 226.765,270.067 225.28,269.658 				"/>
			</g>
			<g>
				<path style="fill:#455A64;" d="M214.169,277.29c-0.189-0.052-0.301-0.248-0.248-0.437l2.471-8.98
					c0.745-2.707,2.893-4.839,5.607-5.563c0.715-0.19,1.45,0.01,1.968,0.533c0.518,0.523,0.712,1.26,0.516,1.971l-2.765,10.049
					c-0.052,0.189-0.248,0.3-0.437,0.248c-0.189-0.052-0.3-0.248-0.248-0.437l2.765-10.048c0.127-0.462,0.002-0.942-0.336-1.282
					c-0.335-0.34-0.816-0.47-1.279-0.346c-2.471,0.659-4.426,2.6-5.105,5.064l-2.471,8.98
					C214.554,277.231,214.358,277.342,214.169,277.29z"/>
			</g>
		</g>
		<g>
			<g>
				<path style="fill:#455A64;" d="M213.96,278.821c-0.036,0.003-0.073,0.001-0.11-0.007c-0.192-0.042-0.313-0.232-0.27-0.424
					l1.82-8.261c0.478-2.301,1.02-4.908,3.122-6.42c0.775-0.56,1.805-0.384,2.433,0.017c0.596,0.381,0.885,0.957,0.774,1.542
					l-1.576,8.7c-0.036,0.193-0.216,0.324-0.414,0.286c-0.193-0.035-0.321-0.22-0.286-0.413l1.577-8.703
					c0.08-0.419-0.294-0.708-0.458-0.813c-0.444-0.285-1.151-0.389-1.634-0.039c-1.879,1.351-2.368,3.708-2.841,5.988l-0.141,0.667
					l-1.682,7.603C214.239,278.698,214.109,278.806,213.96,278.821z"/>
			</g>
			<g>
				<polygon style="fill:#455A64;" points="229.268,268.936 225.73,269.27 227.263,269.125 226.389,266.174 206.308,280.327 
					202.99,313.839 214.211,318.357 236.488,302.527 				"/>
				<polygon style="opacity:0.5;fill:#FFFFFF;" points="229.268,268.936 225.73,269.27 227.263,269.125 226.389,266.174 
					206.308,280.327 202.99,313.839 214.211,318.357 236.488,302.527 				"/>
				<polygon style="opacity:0.2;" points="210.644,279.62 209.783,312.067 214.211,318.357 				"/>
				<polygon style="opacity:0.1;" points="202.99,313.839 209.783,312.067 214.211,318.357 				"/>
				<polygon style="opacity:0.3;" points="206.308,280.327 226.389,266.174 225.73,269.27 229.268,268.936 210.895,282.274 
					210.644,279.62 				"/>
				<polygon style="opacity:0.2;" points="225.73,269.27 226.189,271.171 229.268,268.936 				"/>
			</g>
			<g>
				<path style="fill:#455A64;" d="M218.05,280.348c-0.195,0.018-0.369-0.125-0.387-0.32l-0.876-9.273
					c-0.264-2.796,0.988-5.551,3.268-7.19c0.601-0.431,1.359-0.505,2.029-0.201c0.67,0.305,1.113,0.926,1.182,1.66l0.98,10.376
					c0.018,0.195-0.125,0.369-0.32,0.387c-0.195,0.018-0.369-0.125-0.387-0.32l-0.98-10.376c-0.045-0.477-0.332-0.881-0.769-1.079
					c-0.434-0.199-0.93-0.15-1.319,0.13c-2.076,1.493-3.216,4.001-2.975,6.546l0.876,9.273
					C218.389,280.156,218.246,280.33,218.05,280.348z"/>
			</g>
		</g>
		<g>
			<g>
				<g>
					<path style="fill:#F28F8F;" d="M242.844,369.202c-0.23,3.416-1.256,7.317-1.256,7.317c1.846,5.203,7.94,2.494,7.94,2.494
						l0.141-0.81l0.109-0.633c0.328-1.851,1.557-5.602,1.557-5.602L242.844,369.202z"/>
					<path style="opacity:0.3;" d="M242.844,369.202c-0.23,3.416-1.256,7.317-1.256,7.317c1.846,5.203,7.94,2.494,7.94,2.494
						l0.141-0.81l0.109-0.633c0.328-1.851,1.557-5.602,1.557-5.602L242.844,369.202z"/>
				</g>
				<g>
					<path style="fill:#F0F0F0;" d="M248.719,385.928c-0.789,0.571-1.654,1.032-2.445,1.6c-2.181,1.567-3.612,3.596-5.793,5.163
						c-2.152,1.545-4.882,2.266-7.516,1.986c-2.416-0.257-5.403-1.412-7.256-3.115c0.012,0.503,0.052,1.04,0.135,1.63
						c1.778,1.964,4.295,3.244,6.929,3.525c2.635,0.281,5.364-0.44,7.516-1.986c2.181-1.566,3.612-3.596,5.793-5.163
						c0.791-0.568,1.656-1.029,2.445-1.6c0.789-0.571,1.451-1.331,1.829-2.229c0,0-0.044-0.592-0.085-1.504
						C249.884,384.9,249.345,385.475,248.719,385.928z"/>
					<g>
						<path style="fill:#37474F;" d="M250.328,378.359c0.05-0.584-0.549-0.789-0.549-0.789l-0.109,0.633
							c0,0-1.159,0.221-2.519-0.005c-0.535-0.089-1.082,0.055-1.475,0.429l-0.235,0.224c-0.125,0.119-0.296,0.246-0.452,0.174
							c-0.098-0.045-0.148-0.159-0.15-0.267c-0.002-0.108,0.037-0.211,0.074-0.312c0.078-0.208,0.15-0.468,0.222-0.725
							c0.121-0.434-0.007-0.906-0.344-1.204c-0.865-0.765-1.988-1.239-3.14-1.324c-0.363-0.027-0.68,0.223-0.754,0.58
							c-0.76,3.687-7.699,9.546-9.854,9.862c-0.172,0.025-0.339,0.054-0.505,0.085c3.417,0.467,7.716,2.362,7.97,8.08
							c0.693-0.303,1.358-0.668,1.972-1.109c2.181-1.566,3.612-3.596,5.793-5.163c0.791-0.568,1.656-1.029,2.445-1.6
							c0.626-0.453,1.165-1.028,1.552-1.693C250.206,382.742,250.153,380.391,250.328,378.359z"/>
						<path style="fill:#FFFFFF;" d="M230.539,385.72c-2.952,0.54-4.922,1.945-4.83,5.842c1.853,1.703,4.84,2.858,7.256,3.115
							c1.883,0.201,3.81-0.119,5.544-0.876C238.255,388.082,233.956,386.187,230.539,385.72z"/>
					</g>
				</g>
			</g>
			<g>
				<g>
					<path style="fill:#F28F8F;" d="M282.84,357.544c2.742,2.225,3.959,4.699,3.959,4.699c3.385,2.158,7.203-3.912,7.203-3.912
						l-0.277-0.58c-0.952-1.698-3.194-5.914-3.194-5.914L282.84,357.544z"/>
					<path style="opacity:0.3;" d="M282.84,357.544c2.742,2.225,3.959,4.699,3.959,4.699c3.385,2.158,7.203-3.912,7.203-3.912
						l-0.277-0.58c-0.952-1.698-3.194-5.914-3.194-5.914L282.84,357.544z"/>
				</g>
				<g>
					<path style="fill:#F0F0F0;" d="M297.693,365.184c-0.314,0.922-0.753,1.798-1.07,2.719c-0.874,2.539-0.868,5.023-1.743,7.561
						c-0.863,2.505-2.673,4.671-4.985,5.966c-2.12,1.186-5.225,1.971-7.722,1.653c0.301,0.404,0.643,0.819,1.052,1.252
						c2.587,0.575,5.38,0.164,7.692-1.13c2.312-1.294,4.122-3.46,4.985-5.966c0.874-2.539,0.869-5.022,1.743-7.561
						c0.317-0.921,0.756-1.797,1.07-2.719c0.314-0.922,0.415-1.925,0.204-2.876c0,0-0.379-0.458-0.939-1.178
						C298.049,363.672,297.942,364.453,297.693,365.184z"/>
					<g>
						<path style="fill:#37474F;" d="M294.629,358.078c-0.297-0.505-0.904-0.326-0.904-0.326l0.277,0.58c0,0-0.818,0.85-2.059,1.452
							c-0.488,0.237-0.851,0.671-0.955,1.203l-0.063,0.319c-0.033,0.169-0.099,0.372-0.268,0.403
							c-0.106,0.02-0.213-0.044-0.276-0.131c-0.064-0.087-0.092-0.194-0.12-0.298c-0.057-0.215-0.148-0.468-0.238-0.72
							c-0.151-0.424-0.529-0.735-0.977-0.783c-1.148-0.124-2.338,0.138-3.327,0.734c-0.312,0.188-0.426,0.576-0.28,0.909
							c1.512,3.448-0.764,12.24-2.34,13.743c-0.125,0.12-0.245,0.24-0.363,0.361c3.057-1.594,7.661-2.533,11.174,1.986
							c0.39-0.648,0.721-1.33,0.968-2.045c0.874-2.539,0.869-5.022,1.743-7.561c0.317-0.921,0.756-1.797,1.07-2.719
							c0.249-0.732,0.356-1.513,0.288-2.279C297.064,361.725,295.662,359.837,294.629,358.078z"/>
						<path style="fill:#FFFFFF;" d="M282.738,375.524c-2.097,2.148-2.892,4.432-0.565,7.559c2.497,0.318,5.602-0.466,7.722-1.653
							c1.652-0.925,3.04-2.299,4.017-3.92C290.399,372.991,285.796,373.93,282.738,375.524z"/>
					</g>
				</g>
			</g>
			<path style="fill:#455A64;" d="M274.491,263.934c4.596,16.405,0.112,31.241-7.314,52.983
				c5.893,4.361,14.254,17.604,24.051,35.224c0,0-5.459,7.561-11.567,7.754c-1.207-1.578-17.599-22.735-17.599-22.735l-9.926,35.989
				c0,0-7.867,1.257-12.422-3.207c0,0,6.087-41.143,7.915-51.145c-4.699-9.282-11.559-25.565-5.586-54.831L274.491,263.934z"/>
			<path style="opacity:0.2;" d="M248.164,316.135c2.091-15.943,4.497-26.739,4.497-26.739c-6.041-3.204-7.975-6.567-7.975-6.567
				c0.967,5.394,5.654,8.391,5.654,8.391C248.44,300.368,248.164,316.135,248.164,316.135z"/>
			<path style="opacity:0.2;" d="M262.061,337.161c0.994-3.707,0.889-8.093,0.889-8.093l4.227-12.151l-3.118,12.286
				c0.266,2.92,0.352,8.304-0.276,10.181L262.061,337.161z"/>
		</g>
		<g>
			<path style="fill:#088178;" d="M252.787,221.203l-3.256,0.344c-2.41,0.255-4.582,1.578-5.901,3.612
				c-3.351,5.169-4.909,13.079-4.008,21.641c1.123,10.665,0.433,29.134,0.433,29.134c14.146,10.329,35.253,1.137,37.499-1.108
				c0,0-3.822-21.486-3.238-22.842c1.335-3.103,3.718-9.209,4.039-13.94c0.449-6.624-2.582-12.181-2.582-12.181l-12.406-4.659
				H252.787z"/>
		</g>
		<g style="opacity:0.1;">
			<path d="M252.787,221.203l-3.256,0.344c-2.41,0.255-4.582,1.578-5.901,3.612c-3.351,5.169-4.909,13.079-4.008,21.641
				c1.123,10.665,0.433,29.134,0.433,29.134c14.146,10.329,35.253,1.137,37.499-1.108c0,0-3.822-21.486-3.238-22.842
				c1.335-3.103,3.718-9.209,4.039-13.94c0.449-6.624-2.582-12.181-2.582-12.181l-12.406-4.659H252.787z"/>
		</g>
		<g>
			<g>
				<path style="fill:#FFA8A7;" d="M263.417,212.984v8.465c0,1.12-0.451,2.206-1.287,2.95c-2.2,1.957-5.188,2.988-8.15,2.803
					c-0.595-0.037-1.221-0.136-1.679-0.518c-0.642-0.534-0.774-1.502-0.54-2.303c0.117-0.401,0.308-0.77,0.535-1.121
					c0.467-0.723,0.749-1.551,0.749-2.412v-7.865H263.417z"/>
				<path style="opacity:0.3;" d="M263.417,212.984v8.465c0,1.12-0.451,2.206-1.287,2.95c-2.2,1.957-5.188,2.988-8.15,2.803
					c-0.595-0.037-1.221-0.136-1.679-0.518c-0.642-0.534-0.774-1.502-0.54-2.303c0.117-0.401,0.308-0.77,0.535-1.121
					c0.467-0.723,0.749-1.551,0.749-2.412v-7.865H263.417z"/>
				<path style="opacity:0.2;" d="M262.805,213.04l-9.761-0.056v7.193c2.2-0.426,4.344-0.991,6.172-2.258
					C260.906,216.748,262.174,214.995,262.805,213.04z"/>
			</g>
			<g>
				<path style="fill:#263238;" d="M243.912,198.662c-1.377,0.047-2.766-0.405-3.852-1.252c-0.621-0.484-1.14-1.096-1.525-1.782
					c-0.332-0.591,0.215-1.293,0.882-1.17c0.754,0.139,1.536,0.149,2.274,0.024c-1.745-2.271-2.523-5.209-2.115-8.021
					c0.097-0.671,0.837-1.06,1.445-0.761c3.108,1.527,6.63,2.28,10.075,2.036c1.851-0.131,3.676-0.523,5.527-0.665
					c1.851-0.141,3.781-0.015,5.435,0.828c1.653,0.843,2.972,2.522,2.969,4.378c0.438-0.63,1.077-0.963,1.837-1.062
					c0.76-0.099,1.558,0.137,2.143,0.633c-1.071,0.587-2.116,1.181-3.187,1.768c1.097-0.392,2.477,0.465,3.024,1.494
					c0.546,1.029,0.574,2.244,0.589,3.408c0.02,1.548,0.04,3.105-0.208,4.633c-0.248,1.528-0.78,3.04-1.757,4.241
					c-0.821,1.01-1.945,1.771-3.188,2.16c-1.673,0.523-3.504,0.365-5.176-0.165c-1.671-0.53-3.207-1.412-4.693-2.343
					C250.694,204.714,247.132,201.64,243.912,198.662z"/>
				<path style="fill:#FFA8A7;" d="M243.679,195.576c-1.072,6.37-0.357,13.031,2.043,19.028c0.558,1.394,1.28,2.838,2.584,3.582
					c1.367,0.781,3.059,0.618,4.615,0.383c2.507-0.378,5.033-0.894,7.288-2.051c2.256-1.157,4.239-3.033,5.045-5.436
					c1.659,0.397,3.392-0.369,4.418-1.732c1.026-1.363,1.395-3.12,1.432-4.826c0.024-1.092-0.201-2.381-1.182-2.862
					c-0.912-0.447-2.008,0.055-2.797,0.694c-1.292,1.046-2.255,2.492-2.723,4.087c-0.722-2.66-1.845-5.226-2.566-7.886
					c-0.284-1.046-0.634-2.186-1.547-2.77c-1.117-0.715-2.572-0.304-3.858,0.014C252.508,196.774,247.539,196.778,243.679,195.576z"
					/>
				<path style="opacity:0.3;" d="M243.679,195.576c-1.072,6.37-0.357,13.031,2.043,19.028c0.558,1.394,1.28,2.838,2.584,3.582
					c1.367,0.781,3.059,0.618,4.615,0.383c2.507-0.378,5.033-0.894,7.288-2.051c2.256-1.157,4.239-3.033,5.045-5.436
					c1.659,0.397,3.392-0.369,4.418-1.732c1.026-1.363,1.395-3.12,1.432-4.826c0.024-1.092-0.201-2.381-1.182-2.862
					c-0.912-0.447-2.008,0.055-2.797,0.694c-1.292,1.046-2.255,2.492-2.723,4.087c-0.722-2.66-1.845-5.226-2.566-7.886
					c-0.284-1.046-0.634-2.186-1.547-2.77c-1.117-0.715-2.572-0.304-3.858,0.014C252.508,196.774,247.539,196.778,243.679,195.576z"
					/>
				<polygon style="fill:#F28F8F;" points="251.432,203.65 248.322,208.885 252.03,209.581 				"/>
				<polygon style="opacity:0.4;" points="251.432,203.65 248.322,208.885 252.03,209.581 				"/>
				<path style="fill:#F28F8F;" d="M255.605,211.386c-0.939,0.457-1.879,0.913-2.818,1.37c0.41,0.64,1.443,0.919,2.137,0.607
					C255.617,213.052,255.81,212.118,255.605,211.386z"/>
				<path style="opacity:0.4;" d="M255.605,211.386c-0.939,0.457-1.879,0.913-2.818,1.37c0.41,0.64,1.443,0.919,2.137,0.607
					C255.617,213.052,255.81,212.118,255.605,211.386z"/>
				<path style="fill:#F28F8F;" d="M253.945,213.455c0.339,0.06,0.688,0.038,0.978-0.092c0.544-0.244,0.777-0.872,0.754-1.485
					c-0.4,0.002-0.801,0.132-1.111,0.386C254.209,212.556,253.991,212.997,253.945,213.455z"/>
				<path style="fill:#263238;" d="M256.802,203.858c0.059,0.585-0.368,1.107-0.953,1.167c-0.585,0.059-1.107-0.368-1.167-0.953
					c-0.059-0.585,0.368-1.108,0.953-1.166C256.221,202.846,256.743,203.273,256.802,203.858z"/>
				<path style="fill:#263238;" d="M247.871,204.411c0.059,0.585-0.368,1.107-0.953,1.167c-0.585,0.059-1.107-0.368-1.167-0.953
					c-0.059-0.585,0.368-1.107,0.953-1.166C247.29,203.399,247.812,203.826,247.871,204.411z"/>
				<path style="fill:#263238;" d="M246.415,200.298c-0.728,0.62-1.457,1.241-2.185,1.861c-0.288-0.534-0.138-1.28,0.291-1.709
					C244.95,200.02,245.881,200.01,246.415,200.298z"/>
				<path style="fill:#263238;" d="M255.476,199.256c0.838,0.463,1.675,0.925,2.513,1.388c0.176-0.581-0.121-1.282-0.626-1.617
					C256.856,198.692,255.942,198.867,255.476,199.256z"/>
			</g>
		</g>
		<g>
			<g>
				<g>
					<polygon style="fill:#088178;" points="249.508,275.973 249.493,289.417 273.188,275.647 273.203,262.203 					"/>
					<polygon style="fill:#088178;" points="213.199,255.01 213.185,268.455 249.493,289.417 249.508,275.973 					"/>
					<polygon style="opacity:0.2;" points="213.199,255.01 213.185,268.455 249.493,289.417 249.508,275.973 					"/>
					<polygon style="opacity:0.2;" points="249.508,277.563 273.201,263.794 273.203,262.203 249.508,275.973 249.506,277.562 					
						"/>
					<polygon style="opacity:0.2;" points="249.508,275.973 213.199,255.01 213.197,256.599 249.506,277.562 					"/>
				</g>
				<g>
					<polygon style="fill:#088178;" points="274.056,257.149 236.715,235.59 212.346,249.752 249.687,271.311 					"/>
					<polygon style="opacity:0.2;fill:#FFFFFF;" points="274.056,257.149 236.715,235.59 212.346,249.752 249.687,271.311 					"/>
					<polygon style="fill:#088178;" points="249.687,271.311 249.673,276.465 274.042,262.303 274.056,257.149 					"/>
					<polygon style="fill:#088178;" points="212.346,249.752 212.331,254.906 249.673,276.465 249.687,271.311 					"/>
					<polygon style="opacity:0.2;" points="212.346,249.752 212.331,254.906 249.673,276.465 249.687,271.311 					"/>
				</g>
			</g>
			<polygon style="opacity:0.2;fill:#FFFFFF;" points="236.715,235.59 212.346,249.752 212.331,254.906 213.199,255.407 
				213.197,256.599 213.185,268.455 249.493,289.417 273.188,275.647 273.202,262.791 274.042,262.303 274.056,257.149 			"/>
		</g>
		<g>
			<g>
				<g>
					<polygon style="fill:#E0E0E0;" points="243.678,257.396 243.664,270.84 267.359,257.07 267.373,243.626 					"/>
					<polygon style="fill:#E0E0E0;" points="207.37,236.433 207.355,249.877 243.664,270.84 243.678,257.396 					"/>
					<polygon style="opacity:0.2;" points="207.37,236.433 207.355,249.877 243.664,270.84 243.678,257.396 					"/>
					<polygon style="opacity:0.2;" points="243.678,258.986 267.372,245.217 267.373,243.626 243.678,257.396 243.677,258.985 					
						"/>
					<polygon style="opacity:0.2;" points="243.678,257.396 207.37,236.433 207.368,238.022 243.677,258.985 					"/>
				</g>
				<g>
					<polygon style="fill:#E0E0E0;" points="268.227,238.572 230.885,217.013 206.516,231.174 243.858,252.734 					"/>
					<polygon style="opacity:0.2;fill:#FFFFFF;" points="268.227,238.572 230.885,217.013 206.516,231.174 243.858,252.734 					"/>
					<polygon style="fill:#E0E0E0;" points="243.858,252.734 243.843,257.888 268.212,243.726 268.227,238.572 					"/>
					<polygon style="fill:#E0E0E0;" points="206.516,231.174 206.502,236.329 243.843,257.888 243.858,252.734 					"/>
					<polygon style="opacity:0.2;" points="206.516,231.174 206.502,236.329 243.843,257.888 243.858,252.734 					"/>
				</g>
			</g>
			<polygon style="opacity:0.3;fill:#FFFFFF;" points="230.885,217.013 206.516,231.174 206.502,236.329 207.369,236.829 
				207.368,238.022 207.355,249.877 243.664,270.84 267.359,257.07 267.373,244.214 268.212,243.726 268.227,238.572 			"/>
		</g>
		<g>
			<g>
				<path style="fill:#455A64;" d="M251.182,295.638c-0.036,0-0.073-0.005-0.109-0.017c-0.187-0.06-0.29-0.26-0.229-0.447
					l2.589-8.053c0.692-2.245,1.477-4.79,3.712-6.098c0.825-0.484,1.833-0.212,2.42,0.246c0.558,0.435,0.791,1.036,0.626,1.608
					l-2.388,8.513c-0.054,0.189-0.245,0.302-0.439,0.246c-0.189-0.053-0.299-0.249-0.246-0.438l2.389-8.516
					c0.119-0.41-0.226-0.733-0.38-0.852c-0.415-0.325-1.109-0.496-1.623-0.193c-1.997,1.168-2.706,3.469-3.392,5.694l-0.203,0.651
					l-2.39,7.411C251.472,295.542,251.332,295.638,251.182,295.638z"/>
			</g>
			<g>
				<polygon style="fill:#088178;" points="247.806,298.788 247.713,335.023 271.38,321.358 267.352,287.237 				"/>
				<polygon style="fill:#088178;" points="247.806,298.788 247.806,296.122 243.423,296.418 236.966,329.47 247.713,335.023 				
					"/>
				<polygon style="fill:#088178;" points="247.806,296.122 243.896,328.344 247.713,335.023 				"/>
				<polygon style="opacity:0.2;" points="247.806,296.122 243.896,328.344 247.713,335.023 				"/>
				<polygon style="fill:#088178;" points="236.966,329.47 243.896,328.344 247.713,335.023 				"/>
				<polygon style="opacity:0.1;" points="236.966,329.47 243.896,328.344 247.713,335.023 				"/>
				<polygon style="fill:#088178;" points="243.423,296.418 264.746,284.216 263.798,287.237 267.352,287.237 247.806,298.788 
					247.806,296.122 				"/>
				<polygon style="opacity:0.3;" points="243.423,296.418 264.746,284.216 263.798,287.237 267.352,287.237 247.806,298.788 
					247.806,296.122 				"/>
				<polygon style="fill:#088178;" points="263.798,287.237 264.077,289.173 267.352,287.237 				"/>
				<polygon style="opacity:0.2;" points="263.798,287.237 264.077,289.173 267.352,287.237 				"/>
				<polygon style="fill:#088178;" points="264.746,284.216 265.338,287.237 263.798,287.237 				"/>
			</g>
			<g>
				<path style="fill:#455A64;" d="M255.111,297.544c-0.196,0-0.355-0.159-0.355-0.355v-9.314c0-2.808,1.506-5.433,3.93-6.851
					c0.639-0.373,1.4-0.375,2.039-0.009c0.639,0.367,1.021,1.026,1.021,1.763V293.2c0,0.196-0.159,0.355-0.355,0.355
					c-0.196,0-0.355-0.159-0.355-0.355v-10.422c0-0.479-0.248-0.908-0.665-1.147c-0.414-0.239-0.912-0.237-1.325,0.006
					c-2.207,1.291-3.578,3.681-3.578,6.237v9.314C255.466,297.384,255.307,297.544,255.111,297.544z"/>
			</g>
		</g>
		<g>
			<g>
				<path style="fill:#455A64;" d="M255.315,299.075c-0.034,0.013-0.07,0.021-0.108,0.023c-0.196,0.01-0.363-0.141-0.372-0.337
					l-0.437-8.447c-0.149-2.345-0.319-5.002,1.307-7.018c0.599-0.746,1.639-0.849,2.35-0.629c0.676,0.209,1.108,0.688,1.155,1.281
					l0.788,8.806c0.017,0.196-0.122,0.369-0.323,0.386c-0.195,0.018-0.368-0.127-0.386-0.322l-0.789-8.81
					c-0.034-0.426-0.471-0.605-0.657-0.662c-0.504-0.157-1.212-0.07-1.586,0.396c-1.453,1.801-1.299,4.203-1.151,6.527l0.041,0.68
					l0.396,7.777C255.552,298.883,255.455,299.022,255.315,299.075z"/>
			</g>
			<g>
				<polygon style="fill:#E0E0E0;" points="253.276,303.218 266.047,337.128 283.326,315.954 267.452,285.483 				"/>
				<polygon style="fill:#E0E0E0;" points="253.276,303.218 252.33,300.726 248.337,302.558 254.03,335.75 266.047,337.128 				"/>
				<polygon style="fill:#E0E0E0;" points="252.33,300.726 260.109,332.238 266.047,337.128 				"/>
				<polygon style="opacity:0.2;" points="252.33,300.726 260.109,332.238 266.047,337.128 				"/>
				<polygon style="fill:#E0E0E0;" points="254.03,335.75 260.109,332.238 266.047,337.128 				"/>
				<polygon style="opacity:0.1;" points="254.03,335.75 260.109,332.238 266.047,337.128 				"/>
				<polygon style="fill:#E0E0E0;" points="248.337,302.558 263.943,283.584 264.129,286.744 267.452,285.483 253.276,303.218 
					252.33,300.726 				"/>
				<polygon style="opacity:0.3;" points="248.337,302.558 263.943,283.584 264.129,286.744 267.452,285.483 253.276,303.218 
					252.33,300.726 				"/>
				<polygon style="fill:#E0E0E0;" points="264.129,286.744 265.076,288.455 267.452,285.483 				"/>
				<polygon style="opacity:0.2;" points="264.129,286.744 265.076,288.455 267.452,285.483 				"/>
				<polygon style="fill:#E0E0E0;" points="263.943,283.584 265.569,286.198 264.129,286.744 				"/>
			</g>
			<g>
				<path style="fill:#455A64;" d="M259.664,299.463c-0.184,0.07-0.389-0.023-0.458-0.206l-3.305-8.708
					c-0.996-2.625-0.52-5.614,1.243-7.8c0.465-0.575,1.176-0.848,1.903-0.732c0.727,0.117,1.318,0.597,1.58,1.286l3.698,9.744
					c0.07,0.183-0.023,0.389-0.206,0.458c-0.183,0.07-0.389-0.023-0.458-0.206l-3.698-9.744c-0.17-0.448-0.554-0.761-1.028-0.836
					c-0.471-0.076-0.936,0.102-1.237,0.475c-1.605,1.99-2.039,4.711-1.132,7.101l3.305,8.708
					C259.94,299.188,259.848,299.393,259.664,299.463z"/>
			</g>
		</g>
		<g>
			<path style="fill:#FFA8A7;" d="M277.227,253.521l3.273,11.983L267.8,276.149c-0.904,0.758-2.055,1.155-3.234,1.119
				c-1.311-0.04-2.638-0.057-3.881,0.223c-0.994,0.224-1.962,0.552-2.955,0.782c-0.698,0.161-1.417,0.274-2.131,0.264
				c-0.637-0.009-1.106,0.634-0.826,1.206c0.107,0.219,0.255,0.418,0.43,0.573c0.502,0.445,1.182,0.631,1.846,0.724
				c1.054,0.147,2.136,0.091,3.169-0.165c-0.916,1.197-2.478,1.949-3.908,2.428c-1.43,0.478-2.924,0.749-4.345,1.252
				c-0.528,0.187-1.074,0.428-1.395,0.888c-0.32,0.46-0.302,1.196,0.175,1.491c0.61,0.376,1.44-0.18,2.107,0.084
				c-0.044,0.401-0.102,0.778,0.019,1.163c0.12,0.385,0.362,0.742,0.709,0.947c0.347,0.206,0.805,0.24,1.154,0.039
				c0.564,0.953,1.606,1.566,2.686,1.814c1.08,0.248,2.21,0.161,3.299-0.04c4.525-0.837,7.391-4.778,10.939-7.708
				c0.488-0.403,12.998-7.376,19.401-10.937c2.183-1.214,3.267-3.745,2.645-6.164l-4.087-15.883L277.227,253.521z"/>
			<path style="opacity:0.3;" d="M277.227,253.521l3.273,11.983L267.8,276.149c-0.904,0.758-2.055,1.155-3.234,1.119
				c-1.311-0.04-2.638-0.057-3.881,0.223c-0.994,0.224-1.962,0.552-2.955,0.782c-0.698,0.161-1.417,0.274-2.131,0.264
				c-0.637-0.009-1.106,0.634-0.826,1.206c0.107,0.219,0.255,0.418,0.43,0.573c0.502,0.445,1.182,0.631,1.846,0.724
				c1.054,0.147,2.136,0.091,3.169-0.165c-0.916,1.197-2.478,1.949-3.908,2.428c-1.43,0.478-2.924,0.749-4.345,1.252
				c-0.528,0.187-1.074,0.428-1.395,0.888c-0.32,0.46-0.302,1.196,0.175,1.491c0.61,0.376,1.44-0.18,2.107,0.084
				c-0.044,0.401-0.102,0.778,0.019,1.163c0.12,0.385,0.362,0.742,0.709,0.947c0.347,0.206,0.805,0.24,1.154,0.039
				c0.564,0.953,1.606,1.566,2.686,1.814c1.08,0.248,2.21,0.161,3.299-0.04c4.525-0.837,7.391-4.778,10.939-7.708
				c0.488-0.403,12.998-7.376,19.401-10.937c2.183-1.214,3.267-3.745,2.645-6.164l-4.087-15.883L277.227,253.521z"/>
			<path style="opacity:0.2;" d="M288.304,265.24c-1.374-0.643-5.757-1.169-7.803,0.263l-0.336-1.23
				C281.495,263.584,285.079,262.406,288.304,265.24z"/>
			<path style="fill:#088178;" d="M275.649,225.814l1.796,0.51c3.707,1.053,6.659,3.86,7.899,7.508l5.736,16.882
				c-5.173,5.436-14.467,3.77-14.467,3.77l-1.841-8.592C268.284,234.582,274.246,227.656,275.649,225.814z"/>
			<path style="opacity:0.3;" d="M275.649,225.814l1.796,0.51c3.707,1.053,6.659,3.86,7.899,7.508l5.736,16.882
				c-5.173,5.436-14.467,3.77-14.467,3.77l-1.841-8.592C268.284,234.582,274.246,227.656,275.649,225.814z"/>
		</g>
	</g>
</g>
</svg>
